<svg width="48" height="48" viewBox="0 0 48 48" fill="none" xmlns="http://www.w3.org/2000/svg">
<path fill-rule="evenodd" clip-rule="evenodd" d="M24 2.09381C35.9425 2.09381 45.6239 11.7752 45.6239 23.7177C45.6239 33.4211 39.2327 41.6317 30.4303 44.3695L30.0988 44.4548V38.9461C30.0427 38.2573 29.65 37.418 28.9207 36.428C31.95 35.9114 34.1519 35.029 35.5263 33.7807C37.3495 31.8868 38.2611 29.4117 38.2612 26.3555V24.7628C38.1209 23.5002 37.5599 22.0868 36.5782 20.5229C36.4519 20.5229 36.3187 20.3866 36.1785 20.1141C36.4449 19.2674 36.5782 18.5141 36.5782 17.8541V17.5958C36.3818 15.4723 36.0803 14.4106 35.6736 14.4106C34.2571 14.4106 32.4409 15.1639 30.225 16.6704C28.3878 16.2257 27.0905 16.0033 26.3332 16.0032H23.4931C23.0443 16.0032 21.7892 16.2256 19.7275 16.6704C17.6238 15.1639 15.7655 14.4106 14.1527 14.4106C13.788 14.9702 13.5285 16.075 13.3743 17.725V18.0049C13.6268 19.3249 13.753 20.0279 13.753 20.1141C12.3785 21.9793 11.6913 23.9665 11.6913 26.0757C11.6913 30.3945 13.248 33.3574 16.3615 34.9644C17.3573 35.5813 18.7808 36.0261 20.632 36.2988H21.0108V36.557C20.5199 37.1166 20.0922 38.0421 19.7275 39.3334C18.8951 39.6182 18.0196 39.7566 17.1399 39.7423H16.9928C15.7304 39.7423 14.4401 38.6375 13.1218 36.4279C12.1822 35.6244 11.2706 35.2227 10.387 35.2227L9.73491 35.5025C9.73491 35.7463 10.387 36.4494 11.6913 37.6117C11.9858 37.956 12.5889 39.0607 13.5005 40.926C14.4402 41.9017 15.9128 42.3896 17.9183 42.3896C18.517 42.2986 19.122 42.2554 19.7275 42.2604L19.8537 42.5187V44.9347L19.642 44.9023C9.78835 42.886 2.3761 34.1675 2.3761 23.7176C2.3761 11.7753 12.0575 2.09381 24 2.09381Z" fill="black"/>
</svg>
