<svg width="48" height="48" viewBox="0 0 48 48" fill="none" xmlns="http://www.w3.org/2000/svg">
<g clip-path="url(#clip0_113_23)">
<rect width="48" height="48" fill="white"/>
<path d="M28.5938 24C28.5938 26.5372 26.5371 28.5938 24 28.5938C21.4629 28.5938 19.4062 26.5371 19.4062 24C19.4062 21.4629 21.4629 19.4062 24 19.4062C26.5371 19.4062 28.5938 21.4629 28.5938 24Z" fill="black"/>
<path d="M34.7432 15.8723C34.5223 15.2737 34.17 14.7322 33.7123 14.2877C33.2678 13.8299 32.7263 13.4776 32.1276 13.2568C31.642 13.0683 30.9126 12.8437 29.5689 12.7826C28.1154 12.7163 27.6797 12.702 24 12.702C20.3199 12.702 19.8842 12.716 18.431 12.7822C17.0874 12.8437 16.3575 13.0682 15.8723 13.2568C15.2736 13.4775 14.7321 13.8298 14.2877 14.2877C13.8299 14.7323 13.4775 15.2737 13.2564 15.8723C13.0679 16.358 12.8433 17.0878 12.7822 18.4314C12.7159 19.8846 12.7016 20.3203 12.7016 24.0004C12.7016 27.6801 12.7159 28.1158 12.7822 29.5693C12.8433 30.9129 13.0679 31.6425 13.2564 32.128C13.4774 32.7266 13.8296 33.2681 14.2873 33.7127C14.7318 34.1705 15.2733 34.5227 15.8719 34.7436C16.3576 34.9325 17.0874 35.157 18.431 35.2181C19.8842 35.2844 20.3195 35.2984 23.9996 35.2984C27.68 35.2984 28.1158 35.2844 29.5685 35.2181C30.9122 35.157 31.6421 34.9325 32.1276 34.7436C32.722 34.5143 33.2618 34.1631 33.7123 33.7127C34.1627 33.2622 34.5139 32.7224 34.7432 32.128C34.9317 31.6424 35.1562 30.913 35.2177 29.5693C35.284 28.1158 35.298 27.6801 35.298 24.0004C35.298 20.3203 35.284 19.8846 35.2177 18.4314C35.1566 17.0878 34.9321 16.3579 34.7432 15.8723ZM24 31.0767C20.0914 31.0767 16.923 27.9085 16.923 24C16.923 20.0915 20.0914 16.9234 24 16.9234C27.9082 16.9234 31.0766 20.0915 31.0766 24C31.0766 27.9085 27.9082 31.0767 24 31.0767ZM31.3564 18.2974C30.4431 18.2974 29.7027 17.5568 29.7027 16.6436C29.7027 15.7304 30.4431 14.9898 31.3564 14.9898C32.2698 14.9898 33.0102 15.7302 33.0102 16.6435C33.0098 17.5568 32.2698 18.2974 31.3564 18.2974Z" fill="black"/>
<path d="M24 0C10.7472 0 0 10.7472 0 24C0 37.2528 10.7472 48 24 48C37.2528 48 48 37.2528 48 24C48 10.7472 37.2528 0 24 0ZM37.6981 29.6817C37.6315 31.1488 37.3982 32.1504 37.0576 33.0271C36.7035 33.9426 36.1621 34.774 35.4681 35.4681C34.774 36.1621 33.9426 36.7035 33.0271 37.0576C32.1507 37.3982 31.1488 37.6311 29.6821 37.6981C28.2126 37.7651 27.7431 37.7812 24.0004 37.7812C20.2573 37.7812 19.7882 37.7651 18.3182 37.6981C16.8516 37.6311 15.8497 37.3982 14.9732 37.0576C14.0535 36.7116 13.2204 36.1691 12.5321 35.4679C11.8311 34.7796 11.2887 33.9466 10.9428 33.0271C10.6022 32.1507 10.3689 31.1488 10.3023 29.6821C10.2345 28.2121 10.2188 27.7427 10.2188 24C10.2188 20.2573 10.2345 19.7878 10.3019 18.3183C10.3685 16.8512 10.6014 15.8497 10.942 14.9729C11.2881 14.0533 11.8307 13.2203 12.532 12.5321C13.2203 11.8309 14.0533 11.2884 14.9729 10.9424C15.8497 10.6018 16.8512 10.3689 18.3183 10.3019C19.7878 10.2349 20.2573 10.2188 24 10.2188C27.7427 10.2188 28.2122 10.2349 29.6817 10.3022C31.1488 10.3689 32.1503 10.6018 33.0271 10.942C33.9468 11.2882 34.7799 11.8308 35.4683 12.532C36.1694 13.2204 36.7117 14.0534 37.0576 14.9729C37.3986 15.8497 37.6314 16.8512 37.6985 18.3183C37.7655 19.7878 37.7812 20.2573 37.7812 24C37.7812 27.7427 37.7655 28.2122 37.6981 29.6817Z" fill="black"/>
</g>
<defs>
<clipPath id="clip0_113_23">
<rect width="48" height="48" fill="white"/>
</clipPath>
</defs>
</svg>
