<svg width="48" height="48" viewBox="0 0 48 48" fill="none" xmlns="http://www.w3.org/2000/svg">
<g clip-path="url(#clip0_114_35)">
<path d="M24 0C10.7456 0 0 10.7456 0 24C0 37.2544 10.7456 48 24 48C37.2544 48 48 37.2544 48 24C48 10.7456 37.2544 0 24 0Z" fill="black"/>
<path d="M26.6256 21.8281L36.8997 9.88525H34.4651L25.5441 20.2551L18.4189 9.88525H10.2009L20.9755 25.5662L10.2009 38.0901H12.6356L22.0565 27.1392L29.5812 38.0901H37.7992L26.625 21.8281H26.6256ZM13.5129 11.7181H17.2526L34.4662 36.3406H30.7266L13.5129 11.7181Z" fill="white"/>
</g>
<defs>
<clipPath id="clip0_114_35">
<rect width="48" height="48" fill="white"/>
</clipPath>
</defs>
</svg>
