<svg width="301" height="290" viewBox="0 0 301 290" fill="none" xmlns="http://www.w3.org/2000/svg">
<path d="M99.4443 34.7536C99.4443 34.7536 53.8308 57.1416 31.0812 91.64C8.33164 126.138 10.1316 170.52 37.7755 203.464C65.4193 236.408 118.257 232.081 162.498 252.95C206.739 273.818 255.549 269.52 276.468 225.307C297.388 181.093 265.843 164.569 260.425 113.402C255.007 62.234 207.13 -12.6904 99.4443 34.7536Z" fill="#92E3A9"/>
<path opacity="0.7" d="M99.4443 34.7536C99.4443 34.7536 53.8308 57.1416 31.0812 91.64C8.33164 126.138 10.1316 170.52 37.7755 203.464C65.4193 236.408 118.257 232.081 162.498 252.95C206.739 273.818 255.549 269.52 276.468 225.307C297.388 181.093 265.843 164.569 260.425 113.402C255.007 62.234 207.13 -12.6904 99.4443 34.7536Z" fill="white"/>
<path d="M233.726 235.323C233.726 235.323 208.093 191.98 214.011 180.925C219.929 169.87 235.039 189.747 235.039 189.747C235.039 189.747 221.897 149.321 229.127 131.66C236.357 113.999 248.843 131.66 249.499 144.159C250.155 156.658 246.868 177.973 246.868 177.973C246.868 177.973 252.13 133.893 264.615 147.1C277.101 160.306 248.843 204.433 248.843 204.433C248.843 204.433 267.902 194.143 267.24 207.373C266.578 220.603 244.243 232.365 244.243 232.365" fill="#92E3A9"/>
<path d="M233.943 227.238C233.943 227.238 210.224 205.917 221.783 196.365C233.341 186.812 239.421 206.654 239.421 206.654C239.421 206.654 226.647 145.644 247.326 143.434C268.004 141.224 252.798 196.359 252.798 196.359C252.798 196.359 270.436 172.84 269.22 191.98C268.004 211.12 241.854 227.267 241.854 227.267" stroke="#263238" stroke-miterlimit="10"/>
<path d="M245.592 223.358L229.567 206.625" stroke="#263238" stroke-miterlimit="10"/>
<path d="M242.257 224.646L246.597 175.734" stroke="#263238" stroke-miterlimit="10"/>
<path d="M241.589 221.102L255.946 202.762" stroke="#263238" stroke-miterlimit="10"/>
<path d="M262.358 217.691H218.02L222.457 268.076H257.921L262.358 217.691Z" fill="#263238"/>
<path d="M93.0993 159.262C87.3346 156.537 81.3758 154.211 75.268 152.302C66.4668 149.692 56.0823 152.082 55.8535 154.906C55.6248 157.731 57.19 156.438 59.2428 159.5C61.2956 162.562 60.3685 169.72 63.3063 176.245C66.2441 182.77 75.0393 186.029 75.0393 186.029L93.0993 159.262Z" fill="#92E3A9" stroke="#263238" stroke-linecap="round" stroke-linejoin="round"/>
<path opacity="0.3" d="M87.2297 165.573C87.2297 165.573 73.6847 157.308 65.7865 154.477C57.8883 151.647 57.4368 155.782 57.4368 155.782C58.7362 156.242 59.8513 157.086 60.6223 158.193C61.3933 159.301 61.7807 160.615 61.729 161.948C61.729 166.831 64.2634 176.946 70.4219 179.034C76.5804 181.122 87.2297 165.573 87.2297 165.573Z" fill="black"/>
<path d="M183.878 174.808C187.418 173.512 189.118 169.493 187.674 165.831C186.23 162.168 182.189 160.25 178.649 161.545C175.109 162.841 173.41 166.86 174.854 170.522C176.298 174.185 180.338 176.103 183.878 174.808Z" fill="#92E3A9" stroke="#263238" stroke-linecap="round" stroke-linejoin="round"/>
<path d="M86.8264 244.076L94.4237 266.034C94.6297 266.629 95.025 267.147 95.5533 267.513C96.0817 267.88 96.7164 268.077 97.3674 268.076H109.209C109.815 268.077 110.407 267.906 110.913 267.586C111.42 267.265 111.817 266.808 112.056 266.272L117.354 254.429" fill="#92E3A9"/>
<mask id="mask0_114_601" style="mask-type:luminance" maskUnits="userSpaceOnUse" x="86" y="244" width="32" height="25">
<path d="M86.8264 244.076L94.4237 266.034C94.6297 266.629 95.025 267.147 95.5533 267.513C96.0817 267.88 96.7164 268.077 97.3674 268.076H109.209C109.815 268.077 110.407 267.906 110.913 267.586C111.42 267.265 111.817 266.808 112.056 266.272L117.354 254.429" fill="white"/>
</mask>
<g mask="url(#mask0_114_601)">
<path opacity="0.3" d="M90.637 244.076L96.9218 266.034C97.0408 266.586 97.3444 267.084 97.7859 267.453C98.2275 267.822 98.7827 268.041 99.366 268.076H109.185C109.724 268.049 110.241 267.861 110.664 267.538C111.087 267.214 111.395 266.772 111.544 266.272L115.939 254.429" fill="black"/>
</g>
<path d="M86.8264 244.076L94.4237 266.034C94.6297 266.629 95.025 267.147 95.5533 267.513C96.0817 267.88 96.7164 268.077 97.3674 268.076H109.209C109.815 268.077 110.407 267.906 110.913 267.586C111.42 267.265 111.817 266.808 112.056 266.272L117.354 254.429" stroke="#263238" stroke-linecap="round" stroke-linejoin="round"/>
<path d="M143.968 244.076L136.377 266.034C136.171 266.629 135.776 267.147 135.247 267.513C134.719 267.88 134.084 268.077 133.433 268.076H121.604C120.998 268.077 120.406 267.906 119.899 267.586C119.393 267.265 118.996 266.808 118.757 266.272L113.459 254.429" fill="#263238"/>
<path d="M143.968 244.076L136.377 266.034C136.171 266.629 135.776 267.147 135.247 267.513C134.719 267.88 134.084 268.077 133.433 268.076H121.604C120.998 268.077 120.406 267.906 119.899 267.586C119.393 267.265 118.996 266.808 118.757 266.272L113.459 254.429" stroke="#263238" stroke-linecap="round" stroke-linejoin="round"/>
<path d="M169.126 244.076L161.529 266.034C161.323 266.629 160.927 267.147 160.399 267.513C159.871 267.88 159.236 268.077 158.585 268.076H146.743C146.138 268.077 145.545 267.906 145.039 267.586C144.533 267.265 144.135 266.808 143.896 266.272L138.598 254.429" fill="#92E3A9"/>
<mask id="mask1_114_601" style="mask-type:luminance" maskUnits="userSpaceOnUse" x="138" y="244" width="32" height="25">
<path d="M169.126 244.076L161.529 266.034C161.323 266.629 160.927 267.147 160.399 267.513C159.871 267.88 159.236 268.077 158.585 268.076H146.743C146.138 268.077 145.545 267.906 145.039 267.586C144.533 267.265 144.135 266.808 143.896 266.272L138.598 254.429" fill="white"/>
</mask>
<g mask="url(#mask1_114_601)">
<path opacity="0.3" d="M163.744 244.076L158.549 266.034C158.26 267.252 157.453 268.076 156.538 268.076H148.441C147.598 268.076 146.834 267.368 146.497 266.272L141.464 254.672" fill="black"/>
</g>
<path d="M169.126 244.076L161.529 266.034C161.323 266.629 160.927 267.147 160.399 267.513C159.871 267.88 159.236 268.077 158.585 268.076H146.743C146.138 268.077 145.545 267.906 145.039 267.586C144.533 267.265 144.135 266.808 143.896 266.272L138.598 254.429" stroke="#263238" stroke-linecap="round" stroke-linejoin="round"/>
<path d="M128.527 258.523C164.491 258.523 193.645 233.049 193.645 201.625C193.645 170.202 164.491 144.727 128.527 144.727C92.5632 144.727 63.4087 170.202 63.4087 201.625C63.4087 233.049 92.5632 258.523 128.527 258.523Z" fill="#92E3A9"/>
<mask id="mask2_114_601" style="mask-type:luminance" maskUnits="userSpaceOnUse" x="63" y="144" width="131" height="115">
<path d="M128.527 258.523C164.491 258.523 193.645 233.049 193.645 201.625C193.645 170.202 164.491 144.727 128.527 144.727C92.5632 144.727 63.4087 170.202 63.4087 201.625C63.4087 233.049 92.5632 258.523 128.527 258.523Z" fill="white"/>
</mask>
<g mask="url(#mask2_114_601)">
<path opacity="0.3" d="M173.376 162.748C177.195 170.044 179.184 178.101 179.185 186.273C179.185 217.697 150.03 243.171 114.067 243.171C100.684 243.236 87.5658 239.574 76.2915 232.626C87.6452 247.306 106.867 256.986 128.665 256.986C163.581 256.986 191.875 232.273 191.875 201.782C191.839 186.522 184.772 172.736 173.376 162.748Z" fill="black"/>
</g>
<path d="M128.527 258.523C164.491 258.523 193.645 233.049 193.645 201.625C193.645 170.202 164.491 144.727 128.527 144.727C92.5632 144.727 63.4087 170.202 63.4087 201.625C63.4087 233.049 92.5632 258.523 128.527 258.523Z" stroke="#263238" stroke-linecap="round" stroke-linejoin="round"/>
<path d="M188.167 206.729C186.746 218.19 181.262 228.59 173.003 236.802" stroke="#92E3A9" stroke-width="2" stroke-linecap="round" stroke-linejoin="round"/>
<path d="M187.09 189.08C188.05 192.919 188.535 196.853 188.534 200.802" stroke="#92E3A9" stroke-width="2" stroke-linecap="round" stroke-linejoin="round"/>
<path d="M112.381 148.277C117.747 147.068 123.239 146.461 128.75 146.467C132.277 146.467 135.801 146.715 139.291 147.21" stroke="#263238" stroke-width="4" stroke-linecap="round" stroke-linejoin="round"/>
<path d="M141.301 187.995C141.301 187.995 147.622 183.86 147.851 176.25C148.08 168.641 137.689 157.551 129.34 152.981C120.99 148.41 114.892 149.286 114.669 152.546C114.446 155.805 111.508 159.506 110.383 165.81C109.257 172.115 108.799 181.47 117.607 184.515" fill="#92E3A9"/>
<path d="M141.301 187.995C141.301 187.995 147.622 183.86 147.851 176.25C148.08 168.641 137.689 157.551 129.34 152.981C120.99 148.41 114.892 149.286 114.669 152.546C114.446 155.805 111.508 159.506 110.383 165.81C109.257 172.115 108.799 181.47 117.607 184.515" stroke="#263238" stroke-linecap="round" stroke-linejoin="round"/>
<path opacity="0.3" d="M127.702 185.554L128.997 185.739C134.547 186.511 136.497 183.019 136.335 177.776C136.112 170.381 125.956 154.721 121.664 152.546C117.372 150.371 116.023 153.416 116.023 153.416C116.023 153.416 116.625 153.804 114.512 160.561C113.537 163.682 109.907 174.563 113.501 179.388C116.68 183.651 122.585 184.817 127.702 185.554Z" fill="black"/>
<path opacity="0.3" d="M145.684 178.06H145.6C145.521 178.05 145.445 178.025 145.376 177.987C145.307 177.948 145.247 177.897 145.199 177.836C145.151 177.775 145.116 177.706 145.096 177.632C145.076 177.558 145.071 177.48 145.082 177.405C145.147 176.959 145.185 176.509 145.196 176.059C145.317 171.999 141.879 166.17 136.226 160.793C136.17 160.74 136.125 160.676 136.094 160.605C136.063 160.535 136.047 160.459 136.046 160.383C136.046 160.306 136.061 160.23 136.091 160.16C136.121 160.089 136.165 160.024 136.22 159.97C136.276 159.915 136.342 159.872 136.416 159.842C136.489 159.812 136.567 159.797 136.647 159.796C136.726 159.796 136.805 159.81 136.878 159.839C136.952 159.868 137.019 159.91 137.075 159.964C143.047 165.648 146.533 171.674 146.4 176.088C146.387 176.581 146.347 177.073 146.28 177.561C146.26 177.7 146.188 177.826 146.079 177.918C145.969 178.01 145.829 178.06 145.684 178.06Z" fill="black"/>
<path opacity="0.3" d="M142.445 185.055C142.331 185.055 142.22 185.024 142.123 184.966C142.027 184.908 141.949 184.824 141.9 184.725C141.851 184.626 141.832 184.516 141.845 184.407C141.859 184.298 141.904 184.195 141.976 184.109C142.968 182.938 143.76 181.623 144.323 180.212C144.38 180.068 144.494 179.952 144.639 179.889C144.785 179.826 144.951 179.821 145.1 179.875C145.249 179.93 145.37 180.04 145.435 180.18C145.501 180.32 145.506 180.48 145.449 180.624C144.841 182.151 143.983 183.574 142.909 184.84C142.853 184.907 142.782 184.96 142.702 184.998C142.622 185.035 142.534 185.054 142.445 185.055Z" fill="black"/>
<path opacity="0.3" d="M98.6061 212.634C100.386 205.76 94.1807 198.348 84.7451 196.079C75.3095 193.811 66.2171 197.545 64.4366 204.42C62.6562 211.295 68.862 218.707 78.2976 220.975C87.7332 223.244 96.8256 219.509 98.6061 212.634Z" fill="black"/>
<path d="M97.7589 211.386C99.5393 204.511 93.3335 197.099 83.8979 194.831C74.4623 192.563 65.3699 196.297 63.5895 203.172C61.809 210.047 68.0148 217.459 77.4504 219.727C86.8861 221.995 95.9785 218.261 97.7589 211.386Z" fill="#92E3A9" stroke="#263238" stroke-linecap="round" stroke-linejoin="round"/>
<path d="M75.3582 205.204C75.4666 206.758 74.8465 208.069 73.9797 208.104C73.1128 208.139 72.3121 206.944 72.1737 205.39C72.0352 203.835 72.6854 202.519 73.5583 202.49C74.4312 202.461 75.2499 203.644 75.3582 205.204Z" stroke="#263238" stroke-linecap="round" stroke-linejoin="round"/>
<path d="M87.2899 208.087C87.3982 209.647 86.7782 210.952 85.9113 210.987C85.0444 211.021 84.2438 209.827 84.1053 208.266C83.9668 206.706 84.617 205.401 85.4899 205.366C86.3628 205.332 87.1635 206.526 87.2899 208.087Z" stroke="#263238" stroke-linecap="round" stroke-linejoin="round"/>
<path d="M106.981 212.118C106.854 213.234 106.583 214.331 106.175 215.383C102.719 224.379 90.2096 228.271 77.8506 224.396" stroke="#263238" stroke-width="3" stroke-linecap="round" stroke-linejoin="round"/>
<path d="M104.965 211.265H108.799" stroke="#263238" stroke-width="3" stroke-linecap="round" stroke-linejoin="round"/>
<path d="M80.5356 187.183C80.1142 188.871 79.0366 190.083 78.1276 189.863C77.2186 189.643 76.8213 188.123 77.2487 186.418C77.6761 184.713 78.7477 183.518 79.6567 183.732C80.5657 183.947 80.963 185.49 80.5356 187.183Z" fill="#263238" stroke="#263238" stroke-linecap="round" stroke-linejoin="round"/>
<path d="M91.6379 189.515C92.0617 187.821 91.6689 186.277 90.7606 186.066C89.8524 185.855 88.7726 187.057 88.3488 188.752C87.9251 190.446 88.3178 191.99 89.2261 192.201C90.1343 192.412 91.2141 191.209 91.6379 189.515Z" fill="#263238" stroke="#263238" stroke-linecap="round" stroke-linejoin="round"/>
<path d="M108.216 251.14L114.838 266.278C115.075 266.819 115.473 267.281 115.982 267.606C116.49 267.931 117.087 268.105 117.697 268.105H129.737C130.342 268.104 130.933 267.934 131.439 267.614C131.944 267.295 132.342 266.841 132.585 266.307L139.809 250.224H139.495" fill="#92E3A9"/>
<mask id="mask3_114_601" style="mask-type:luminance" maskUnits="userSpaceOnUse" x="108" y="250" width="32" height="19">
<path d="M108.216 251.14L114.838 266.278C115.075 266.819 115.473 267.281 115.982 267.606C116.49 267.931 117.087 268.105 117.697 268.105H129.737C130.342 268.104 130.933 267.934 131.439 267.614C131.944 267.295 132.342 266.841 132.585 266.307L139.809 250.224H139.495" fill="white"/>
</mask>
<g mask="url(#mask3_114_601)">
<path opacity="0.3" d="M122.206 249.209C118.389 249.209 113.947 249.69 110.353 248.89L116.541 266.249C116.689 266.753 116.996 267.2 117.42 267.528C117.844 267.856 118.364 268.047 118.907 268.076H128.828C129.365 268.047 129.878 267.859 130.299 267.537C130.72 267.215 131.026 266.775 131.176 266.278L137.166 248.571L134.758 248.89C127.118 249.69 127.317 249.209 122.206 249.209Z" fill="black"/>
</g>
<path d="M108.216 251.14L114.838 266.278C115.075 266.819 115.473 267.281 115.982 267.606C116.49 267.931 117.087 268.105 117.697 268.105H129.737C130.342 268.104 130.933 267.934 131.439 267.614C131.944 267.295 132.342 266.841 132.585 266.307L139.809 250.224H139.495" stroke="#263238" stroke-linecap="round" stroke-linejoin="round"/>
<path d="M228.158 15.3352L194.861 61.5554C194.861 61.5554 192.014 68.0978 188.51 72.9524C185.007 77.807 175.182 82.6616 175.182 82.6616C175.182 82.6616 174.309 91.7328 171.461 94.8996C168.614 98.0664 162.48 96.1698 162.48 96.1698C162.48 96.1698 159.849 98.9132 157.001 100.178C154.154 101.442 145.395 96.802 145.395 96.802C145.395 96.802 153.275 105.032 154.371 107.776C155.466 110.519 157.441 112.839 153.937 115.374C150.434 117.908 146.485 114.318 146.485 114.318C146.485 114.318 148.242 119.805 143.204 120.86C138.165 121.916 132.675 111.36 130.483 107.776C128.292 104.191 121.941 90.6772 120.851 90.045C119.762 89.4128 118.227 86.0372 120.418 82.8704C122.609 79.7036 138.153 59.4442 139.905 58C141.656 56.5558 175.182 48.894 175.182 48.894L187.89 15.1264" fill="white"/>
<mask id="mask4_114_601" style="mask-type:luminance" maskUnits="userSpaceOnUse" x="119" y="15" width="110" height="106">
<path d="M228.158 15.3352L194.861 61.5554C194.861 61.5554 192.014 68.0978 188.51 72.9524C185.007 77.807 175.182 82.6616 175.182 82.6616C175.182 82.6616 174.309 91.7328 171.461 94.8996C168.614 98.0664 162.48 96.1698 162.48 96.1698C162.48 96.1698 159.849 98.9132 157.001 100.178C154.154 101.442 145.395 96.802 145.395 96.802C145.395 96.802 153.275 105.032 154.371 107.776C155.466 110.519 157.441 112.839 153.937 115.374C150.434 117.908 146.485 114.318 146.485 114.318C146.485 114.318 148.242 119.805 143.204 120.86C138.165 121.916 132.675 111.36 130.483 107.776C128.292 104.191 121.941 90.6772 120.851 90.045C119.762 89.4128 118.227 86.0372 120.418 82.8704C122.609 79.7036 138.153 59.4442 139.905 58C141.656 56.5558 175.182 48.894 175.182 48.894L187.89 15.1264" fill="white"/>
</mask>
<g mask="url(#mask4_114_601)">
<path opacity="0.2" d="M191.436 62.06C191.436 62.06 187.824 72.5 183.911 74.53C179.998 76.56 157.724 82.07 148.995 80.91C140.266 79.75 135.45 76.56 135.45 76.56C135.45 76.56 130.634 82.65 128.527 84.68C127.06 85.9928 125.314 86.9823 123.41 87.58C123.41 87.58 133.885 112.932 141.416 120.779C142.001 120.953 142.622 120.981 143.222 120.86C148.26 119.805 146.503 114.318 146.503 114.318C146.503 114.318 150.446 117.902 153.955 115.374C157.465 112.845 155.484 110.519 154.389 107.776C153.293 105.032 145.383 96.802 145.383 96.802C145.383 96.802 154.142 101.442 156.989 100.178C159.837 98.9132 162.468 96.164 162.468 96.164C162.468 96.164 168.602 98.0664 171.45 94.8996C174.297 91.7328 175.17 82.6616 175.17 82.6616C175.17 82.6616 185.025 77.807 188.534 72.9524C192.044 68.0978 194.885 61.5554 194.885 61.5554L208.605 42.514L191.436 62.06Z" fill="black"/>
</g>
<path d="M228.158 15.3352L194.861 61.5554C194.861 61.5554 192.014 68.0978 188.51 72.9524C185.006 77.807 175.182 82.6616 175.182 82.6616C175.182 82.6616 174.309 91.7328 171.461 94.8996C168.614 98.0664 162.48 96.1698 162.48 96.1698C162.48 96.1698 159.849 98.9132 157.001 100.178C154.154 101.442 145.395 96.802 145.395 96.802C145.395 96.802 153.275 105.032 154.371 107.776C155.466 110.519 157.441 112.839 153.937 115.374C150.434 117.908 146.485 114.318 146.485 114.318C146.485 114.318 148.242 119.805 143.204 120.86C138.165 121.916 132.675 111.36 130.483 107.776C128.292 104.191 121.941 90.6772 120.851 90.045C119.762 89.4128 118.227 86.0372 120.418 82.8704C122.609 79.7036 138.153 59.4442 139.905 58C141.656 56.5558 175.182 48.894 175.182 48.894L187.89 15.1264" stroke="#263238" stroke-linecap="round" stroke-linejoin="round"/>
<path d="M114.278 138.585L115.15 141.752L128.732 138.585L141.44 106.505L133.114 103.762L114.278 138.585Z" fill="white" stroke="#263238" stroke-linecap="round" stroke-linejoin="round"/>
<path d="M118.437 95.9552L137.274 102.712L128.075 142.808L105.952 136.265L118.437 95.9552Z" fill="white" stroke="#263238" stroke-linecap="round" stroke-linejoin="round"/>
<path d="M106.692 133.87L126.324 139.432L134.866 103.762L117.667 98.4376L106.692 133.87Z" fill="#92E3A9" stroke="#263238" stroke-linecap="round" stroke-linejoin="round"/>
<path d="M117.589 107.259C116.734 107.042 115.841 107.002 114.97 107.143L109.841 123.702C110.583 124.399 111.496 124.904 112.496 125.17C116.517 126.237 120.924 123.088 122.332 118.14C123.741 113.193 121.604 108.321 117.589 107.259Z" fill="white" stroke="#263238" stroke-linecap="round" stroke-linejoin="round"/>
<path d="M116.86 110.003C116.834 109.992 116.813 109.972 116.8 109.948C116.787 109.924 116.783 109.896 116.788 109.869L117.017 109.011C117.031 108.975 117.036 108.936 117.032 108.898C117.028 108.859 117.015 108.822 116.995 108.789C116.974 108.756 116.945 108.728 116.912 108.708C116.878 108.687 116.84 108.673 116.8 108.669L115.843 108.448C115.805 108.434 115.765 108.428 115.724 108.431C115.684 108.434 115.645 108.446 115.611 108.467C115.576 108.487 115.547 108.515 115.526 108.548C115.504 108.581 115.491 108.618 115.488 108.657L115.301 109.545C115.294 109.571 115.277 109.594 115.254 109.61C115.231 109.626 115.203 109.634 115.175 109.632C114.848 109.599 114.52 109.599 114.193 109.632L112.442 115.298C113.808 116.667 115.939 117.351 115.656 118.5C115.494 119.149 114.88 119.66 113.802 119.428C113.577 119.399 113.361 119.323 113.168 119.207C112.976 119.09 112.812 118.935 112.687 118.751C112.563 118.568 112.481 118.361 112.447 118.145C112.412 117.928 112.427 117.707 112.49 117.496L112.544 117.264C112.574 117.137 112.496 117.032 112.309 116.992L111.942 116.905L110.9 120.257C111.319 120.624 111.808 120.907 112.339 121.092C112.366 121.104 112.388 121.124 112.401 121.149C112.415 121.175 112.418 121.204 112.411 121.232L112.195 121.968C112.178 122.004 112.171 122.044 112.173 122.083C112.176 122.122 112.189 122.16 112.21 122.194C112.231 122.228 112.261 122.256 112.296 122.276C112.331 122.296 112.371 122.308 112.411 122.31L113.405 122.542C113.44 122.56 113.478 122.57 113.518 122.571C113.557 122.573 113.597 122.565 113.633 122.549C113.669 122.534 113.701 122.51 113.726 122.481C113.751 122.452 113.769 122.417 113.778 122.38L113.94 121.649C113.949 121.622 113.967 121.599 113.991 121.582C114.015 121.565 114.043 121.556 114.073 121.556C116.192 121.771 117.631 120.768 118.076 118.981C118.425 117.554 117.926 116.342 116.379 115.2C114.964 114.167 113.471 113.657 113.73 112.601C113.91 111.87 114.603 111.534 115.536 111.749C115.767 111.784 115.987 111.868 116.181 111.994C116.375 112.119 116.539 112.284 116.661 112.476C116.783 112.669 116.86 112.884 116.887 113.108C116.914 113.332 116.891 113.559 116.818 113.773L116.776 113.935C116.776 114.034 116.836 114.121 117.023 114.167L118.787 114.573C118.824 114.587 118.864 114.592 118.904 114.588C118.944 114.584 118.983 114.572 119.017 114.552C119.051 114.532 119.08 114.504 119.102 114.472C119.123 114.439 119.137 114.403 119.142 114.364L119.274 113.825C119.678 112.126 118.829 110.681 116.86 110.003Z" fill="#263238"/>
<path d="M133.987 74.849C133.987 74.849 136.618 78.648 137.057 82.0294C137.431 84.9115 136.731 87.8277 135.083 90.2596C133.77 92.1562 132.458 93.844 131.362 96.802C130.267 99.76 130.05 103.977 128.515 106.082C126.98 108.187 126.107 110.299 128.292 112.201C130.477 114.103 136.178 113.889 139.249 108.402C142.319 102.915 144.287 97.005 146.256 94.8938C148.224 92.7826 154.581 87.9338 154.581 87.9338C154.581 87.9338 171.883 85.6138 175.17 82.6616C178.457 79.7094 181.304 71.688 181.304 71.688" fill="white"/>
<mask id="mask5_114_601" style="mask-type:luminance" maskUnits="userSpaceOnUse" x="126" y="71" width="56" height="43">
<path d="M133.987 74.849C133.987 74.849 136.618 78.648 137.057 82.0294C137.431 84.9115 136.731 87.8277 135.083 90.2596C133.77 92.1562 132.458 93.844 131.362 96.802C130.267 99.76 130.05 103.977 128.515 106.082C126.98 108.187 126.107 110.299 128.292 112.201C130.477 114.103 136.178 113.889 139.249 108.402C142.319 102.915 144.287 97.005 146.256 94.8938C148.224 92.7826 154.581 87.9338 154.581 87.9338C154.581 87.9338 171.883 85.6138 175.17 82.6616C178.457 79.7094 181.304 71.688 181.304 71.688" fill="white"/>
</mask>
<g mask="url(#mask5_114_601)">
<path opacity="0.2" d="M179.998 74.53C179.998 74.53 170.667 80.33 163.443 82.07C156.219 83.81 151.704 83.81 148.995 87.29C146.286 90.77 143.577 101.79 139.965 103.82C136.353 105.85 135.751 98.6 130.634 100.05L130.465 100.108C129.966 102.37 129.526 104.69 128.515 106.088C126.98 108.199 126.107 110.304 128.292 112.207C130.477 114.109 136.178 113.895 139.249 108.408C142.319 102.921 144.287 97.0108 146.256 94.8996C148.224 92.7884 154.581 87.9396 154.581 87.9396C154.581 87.9396 171.883 85.6196 175.17 82.6674C177.156 80.881 178.981 77.2502 180.112 74.6518L179.998 74.53Z" fill="black"/>
</g>
<path d="M133.987 74.849C133.987 74.849 136.618 78.648 137.057 82.0294C137.431 84.9115 136.731 87.8277 135.083 90.2596C133.77 92.1562 132.458 93.844 131.362 96.802C130.267 99.76 130.05 103.977 128.515 106.082C126.98 108.187 126.107 110.299 128.292 112.201C130.477 114.103 136.178 113.889 139.249 108.402C142.319 102.915 144.287 97.005 146.256 94.8938C148.224 92.7826 154.581 87.9338 154.581 87.9338C154.581 87.9338 171.883 85.6138 175.17 82.6616C178.457 79.7094 181.304 71.688 181.304 71.688" stroke="#263238" stroke-linecap="round" stroke-linejoin="round"/>
<path d="M127.197 85.405C127.197 85.405 132.897 88.3572 137.057 84.9816" stroke="#263238" stroke-linecap="round" stroke-linejoin="round"/>
<path d="M146.472 114.318L141.44 105.032" stroke="#263238" stroke-linecap="round" stroke-linejoin="round"/>
<path d="M162.468 96.1698C162.468 96.1698 166.411 93.003 166.188 86.0372" stroke="#263238" stroke-linecap="round" stroke-linejoin="round"/>
<path d="M42.7422 268.076H281.134" stroke="#263238" stroke-linecap="round" stroke-linejoin="round"/>
<path d="M21.6721 268.076H32.5081" stroke="#263238" stroke-linecap="round" stroke-linejoin="round"/>
</svg>
