<svg width="161" height="272" viewBox="0 0 161 272" fill="none" xmlns="http://www.w3.org/2000/svg">
<path d="M84.2596 168.206C83.944 178.864 90.184 178.003 90.184 178.003C90.5702 177.122 91.4616 175.909 92.535 174.501C95.8007 170.253 100.802 164.297 98.925 160.77C98.0733 159.169 96.4802 156.935 94.7525 154.687C91.4074 150.352 87.5659 145.97 87.5659 145.97L104.226 143.637C104.226 143.637 116.091 147.785 125.454 148.265C125.699 148.278 125.943 148.285 126.18 148.285C134.731 148.425 133.35 142.756 133.35 140.929C133.35 140.148 131.039 138.721 128.333 137.314C124.476 135.314 119.799 133.347 119.799 133.347L122.331 128.911C124.089 129.178 125.549 129.231 126.756 129.112C133.24 128.511 132.348 123.116 131.299 120.762C130.999 120.088 129.508 119.068 127.402 117.894C120.736 114.179 107.973 109.004 107.973 109.004H89.2539L70.835 151.513C70.833 151.514 84.5674 157.549 84.2596 168.206Z" fill="white"/>
<path opacity="0.4" d="M84.2596 168.206C83.944 178.864 90.184 178.003 90.184 178.003C90.5702 177.122 91.4616 175.909 92.535 174.501C95.8007 170.253 100.802 164.297 98.925 160.77C98.0733 159.169 96.4802 156.935 94.7525 154.687C91.4074 150.352 87.5659 145.97 87.5659 145.97L104.226 143.637C104.226 143.637 116.091 147.785 125.454 148.265C125.699 148.278 125.943 148.285 126.18 148.285C134.731 148.425 133.35 142.756 133.35 140.929C133.35 140.148 131.039 138.721 128.333 137.314C124.476 135.314 119.799 133.347 119.799 133.347L122.331 128.911C124.089 129.178 125.549 129.231 126.756 129.112C133.24 128.511 132.348 123.116 131.299 120.762C130.999 120.088 129.508 119.068 127.402 117.894C120.736 114.179 107.973 109.004 107.973 109.004H89.2539L70.835 151.513C70.833 151.514 84.5674 157.549 84.2596 168.206Z" fill="#92E3A9"/>
<path opacity="0.4" d="M84.2596 168.206C83.944 178.864 90.184 178.003 90.184 178.003C90.5702 177.122 91.4616 175.909 92.535 174.501C92.3144 173.515 92.1721 172.448 92.1963 171.4C92.2756 167.752 95.8172 160.77 95.8172 160.77L92.1963 155.928C92.7247 155.468 93.6317 155.054 94.7525 154.687C91.4074 150.352 87.5659 145.97 87.5659 145.97L104.226 143.637C104.226 143.637 116.091 147.785 125.454 148.265C125.699 148.278 125.943 148.285 126.18 148.285C125.636 144.317 127.489 139.314 128.333 137.314C124.476 135.313 119.799 133.346 119.799 133.346L122.331 128.91C124.089 129.177 125.549 129.23 126.756 129.111C125.904 125.65 126.716 120.848 127.402 117.894C120.736 114.179 107.973 109.004 107.973 109.004H89.2539L70.835 151.513C70.833 151.514 84.5674 157.549 84.2596 168.206Z" fill="#92E3A9"/>
<path d="M89.2486 109.004H107.972C107.972 109.004 130.049 117.959 131.297 120.759C132.545 123.56 133.561 130.62 122.327 128.914L119.796 133.346C119.796 133.346 133.348 139.042 133.348 140.927C133.348 142.813 134.81 148.74 125.449 148.263C116.086 147.787 104.229 143.635 104.229 143.635L87.5674 145.969C87.5674 145.969 96.4274 156.074 98.9236 160.769C101.42 165.465 91.7457 174.456 90.1855 178.007C90.1855 178.007 83.9446 178.863 84.2562 168.206C84.5679 157.549 70.8374 151.513 70.8374 151.513" stroke="#263238" stroke-miterlimit="10" stroke-linecap="round" stroke-linejoin="round"/>
<path d="M93.688 158.869C93.688 158.869 88.9957 156.647 86.4404 160.77" stroke="#263238" stroke-miterlimit="10" stroke-linecap="round" stroke-linejoin="round"/>
<path d="M151.035 163.198H58.269C53.3183 163.198 49.3044 159.805 49.3044 155.619V8.57913C49.3044 4.39351 53.3183 1 58.269 1H151.035C155.986 1 160 4.39351 160 8.57913V155.619C160 159.805 155.987 163.198 151.035 163.198Z" fill="#92E3A9" stroke="#263238" stroke-miterlimit="10" stroke-linecap="round" stroke-linejoin="round"/>
<path d="M156.569 7.58002V157.037C156.569 158.904 154.778 160.418 152.569 160.418H56.7349C54.5262 160.418 52.7356 158.904 52.7356 157.037V7.58002C52.7356 5.71266 54.5262 4.19879 56.7349 4.19879H78.0294C79.431 4.19879 80.6853 4.93527 81.1741 6.04571L82.0791 8.10047C82.5679 9.21091 83.8223 9.94737 85.2238 9.94737H124.081C125.482 9.94737 126.737 9.21091 127.225 8.10047L128.13 6.04571C128.619 4.93527 129.873 4.19879 131.275 4.19879H152.569C154.778 4.19879 156.569 5.71266 156.569 7.58002Z" fill="#263238"/>
<path d="M118.689 123.507H90.6149C85.3583 123.507 81.0967 119.904 81.0967 115.46C81.0967 111.016 85.3583 107.413 90.6149 107.413H118.689C123.945 107.413 128.207 111.016 128.207 115.46C128.207 119.904 123.945 123.507 118.689 123.507Z" fill="#92E3A9" stroke="#263238" stroke-miterlimit="10" stroke-linecap="round" stroke-linejoin="round"/>
<path d="M95.4865 5.88362C95.4865 6.6561 94.746 7.2821 93.8323 7.2821C92.9187 7.2821 92.1782 6.6561 92.1782 5.88362C92.1782 5.11114 92.9187 4.48514 93.8323 4.48514C94.7451 4.48514 95.4865 5.11114 95.4865 5.88362Z" fill="white" stroke="#263238" stroke-miterlimit="10" stroke-linecap="round" stroke-linejoin="round"/>
<path d="M117.128 5.8836C117.128 6.36804 116.663 6.76001 116.09 6.76001C115.517 6.76001 115.052 6.36722 115.052 5.8836C115.052 5.39917 115.517 5.00638 116.09 5.00638C116.663 5.00638 117.128 5.39917 117.128 5.8836Z" fill="white" stroke="#263238" stroke-miterlimit="10" stroke-linecap="round" stroke-linejoin="round"/>
<path d="M111.237 6.37785H98.8324C98.5091 6.37785 98.2468 6.1561 98.2468 5.8836C98.2468 5.61029 98.5091 5.38852 98.8324 5.38852H111.237C111.56 5.38852 111.821 5.61029 111.821 5.8836C111.821 6.15692 111.56 6.37785 111.237 6.37785Z" fill="white" stroke="#263238" stroke-miterlimit="10" stroke-linecap="round" stroke-linejoin="round"/>
<path d="M139.358 99.1924H69.9466C63.2721 99.1924 57.8606 94.6172 57.8606 88.9742V28.6538C57.8606 23.0108 63.2721 18.4356 69.9466 18.4356H139.358C146.032 18.4356 151.444 23.0108 151.444 28.6538V88.9742C151.444 94.6181 146.033 99.1924 139.358 99.1924Z" fill="white" stroke="#263238" stroke-miterlimit="10" stroke-linecap="round" stroke-linejoin="round"/>
<path d="M95.2085 52.6039V40.466" stroke="#263238" stroke-miterlimit="10" stroke-linecap="round" stroke-linejoin="round"/>
<path d="M95.2085 59.8867V55.0309" stroke="#263238" stroke-miterlimit="10" stroke-linecap="round" stroke-linejoin="round"/>
<path d="M95.2085 64.4234V61.8261" stroke="#263238" stroke-miterlimit="10" stroke-linecap="round" stroke-linejoin="round"/>
<path d="M97.9204 41.8841L95.2084 39.047L92.4973 41.8841" stroke="#263238" stroke-miterlimit="10" stroke-linecap="round" stroke-linejoin="round"/>
<path d="M114.096 48.1025V35.9646" stroke="#263238" stroke-miterlimit="10" stroke-linecap="round" stroke-linejoin="round"/>
<path d="M114.096 55.3854V50.5304" stroke="#263238" stroke-miterlimit="10" stroke-linecap="round" stroke-linejoin="round"/>
<path d="M114.096 59.9219V57.3254" stroke="#263238" stroke-miterlimit="10" stroke-linecap="round" stroke-linejoin="round"/>
<path d="M116.807 37.3834L114.096 34.5464L111.385 37.3834" stroke="#263238" stroke-miterlimit="10" stroke-linecap="round" stroke-linejoin="round"/>
<path d="M104.222 39.9514V27.8135" stroke="#263238" stroke-miterlimit="10" stroke-linecap="round" stroke-linejoin="round"/>
<path d="M104.222 47.2343V42.3793" stroke="#263238" stroke-miterlimit="10" stroke-linecap="round" stroke-linejoin="round"/>
<path d="M104.222 51.771V49.1745" stroke="#263238" stroke-miterlimit="10" stroke-linecap="round" stroke-linejoin="round"/>
<path d="M106.933 29.2323L104.222 26.3944L101.51 29.2323" stroke="#263238" stroke-miterlimit="10" stroke-linecap="round" stroke-linejoin="round"/>
<path d="M119.265 59.884C121.157 53.0577 116.146 46.2269 108.072 44.6269C99.9979 43.027 91.9184 47.2637 90.026 54.0899C88.1335 60.9162 93.1447 67.747 101.219 69.347C109.293 70.9469 117.372 66.7102 119.265 59.884Z" fill="#92E3A9" stroke="#263238" stroke-miterlimit="10" stroke-linecap="round" stroke-linejoin="round"/>
<path d="M103.606 50.2479V49.2267H105.696V50.2479C107.508 50.5622 108.438 51.7405 108.438 53.6062V54.0383H106.022V53.4688C106.022 52.4868 105.557 52.1137 104.744 52.1137C103.931 52.1137 103.466 52.4868 103.466 53.4688C103.466 54.4507 103.931 55.1381 105.65 56.2968C107.741 57.7109 108.461 58.791 108.461 60.3622C108.461 62.2279 107.508 63.4267 105.696 63.7401V64.7417H103.606V63.7401C101.771 63.4259 100.842 62.2279 100.842 60.3622V59.4195H103.258V60.4996C103.258 61.4816 103.769 61.8351 104.582 61.8351C105.395 61.8351 105.907 61.4816 105.907 60.4996C105.907 59.5177 105.442 58.8106 103.723 57.6716C101.632 56.2772 100.912 55.1774 100.912 53.6054C100.911 51.7602 101.817 50.581 103.606 50.2479Z" fill="#263238"/>
<path d="M92.9513 77.49V77.1022H93.745V77.49C94.4331 77.6095 94.7854 78.0563 94.7854 78.765V78.9294H93.8689V78.7134C93.8689 78.3403 93.6927 78.1995 93.3839 78.1995C93.0752 78.1995 92.8981 78.3411 92.8981 78.7134C92.8981 79.0866 93.0752 79.3468 93.7275 79.787C94.5212 80.3238 94.7942 80.7338 94.7942 81.3303C94.7942 82.039 94.4331 82.4932 93.745 82.6126V82.9931H92.9513V82.6126C92.2554 82.494 91.9021 82.039 91.9021 81.3303V80.9727H92.8197V81.3827C92.8197 81.7559 93.0132 81.8892 93.322 81.8892C93.6308 81.8892 93.8243 81.755 93.8243 81.3827C93.8243 81.0104 93.6482 80.7412 92.9958 80.3091C92.2021 79.7805 91.9292 79.3623 91.9292 78.7658C91.9282 78.0637 92.2728 77.6161 92.9513 77.49Z" fill="#263238"/>
<path d="M96.0486 78.0939C96.7977 78.0939 96.9652 77.7879 97.1152 77.4385H97.7676V82.656H96.7977V78.6757H96.0486V78.0939Z" fill="#263238"/>
<path d="M98.864 78.6897C98.864 77.855 99.3847 77.3771 100.336 77.3771C101.288 77.3771 101.808 77.8542 101.808 78.6897V81.4032C101.808 82.2378 101.288 82.7149 100.336 82.7149C99.3847 82.7149 98.864 82.2378 98.864 81.4032V78.6897ZM99.8338 81.4555C99.8338 81.8279 100.027 81.9702 100.336 81.9702C100.645 81.9702 100.839 81.8287 100.839 81.4555V78.6381C100.839 78.265 100.645 78.1242 100.336 78.1242C100.027 78.1242 99.8338 78.2658 99.8338 78.6381V81.4555Z" fill="#263238"/>
<path d="M102.358 78.6897C102.358 77.855 102.879 77.3771 103.831 77.3771C104.783 77.3771 105.303 77.8542 105.303 78.6897V81.4032C105.303 82.2378 104.782 82.7149 103.831 82.7149C102.878 82.7149 102.358 82.2378 102.358 81.4032V78.6897ZM103.328 81.4555C103.328 81.8279 103.522 81.9702 103.831 81.9702C104.139 81.9702 104.333 81.8287 104.333 81.4555V78.6381C104.333 78.265 104.139 78.1242 103.831 78.1242C103.522 78.1242 103.328 78.2658 103.328 78.6381V81.4555Z" fill="#263238"/>
<path d="M105.852 78.6897C105.852 77.855 106.373 77.3771 107.324 77.3771C108.276 77.3771 108.797 77.8542 108.797 78.6897V81.4032C108.797 82.2378 108.276 82.7149 107.324 82.7149C106.373 82.7149 105.852 82.2378 105.852 81.4032V78.6897ZM106.823 81.4555C106.823 81.8279 107.017 81.9702 107.325 81.9702C107.634 81.9702 107.828 81.8287 107.828 81.4555V78.6381C107.828 78.265 107.634 78.1242 107.325 78.1242C107.017 78.1242 106.823 78.2658 106.823 78.6381V81.4555Z" fill="#263238"/>
<path d="M110.361 81.8657V82.6561H109.426V81.8657H110.361Z" fill="#263238"/>
<path d="M110.987 78.6897C110.987 77.855 111.508 77.3771 112.459 77.3771C113.41 77.3771 113.931 77.8542 113.931 78.6897V81.4032C113.931 82.2378 113.41 82.7149 112.459 82.7149C111.508 82.7149 110.987 82.2378 110.987 81.4032V78.6897ZM111.958 81.4555C111.958 81.8279 112.151 81.9702 112.46 81.9702C112.769 81.9702 112.962 81.8287 112.962 81.4555V78.6381C112.962 78.265 112.769 78.1242 112.46 78.1242C112.151 78.1242 111.958 78.2658 111.958 78.6381V81.4555Z" fill="#263238"/>
<path d="M114.482 78.6897C114.482 77.855 115.003 77.3771 115.954 77.3771C116.906 77.3771 117.426 77.8542 117.426 78.6897V81.4032C117.426 82.2378 116.906 82.7149 115.954 82.7149C115.002 82.7149 114.482 82.2378 114.482 81.4032V78.6897ZM115.452 81.4555C115.452 81.8279 115.645 81.9702 115.954 81.9702C116.263 81.9702 116.456 81.8287 116.456 81.4555V78.6381C116.456 78.265 116.263 78.1242 115.954 78.1242C115.645 78.1242 115.452 78.2658 115.452 78.6381V81.4555Z" fill="#263238"/>
<path d="M87.6135 87.485H88.5833V92.7025H87.6135V87.485Z" fill="#263238"/>
<path d="M89.29 87.485H90.8241C91.794 87.485 92.2702 87.9399 92.2702 88.7746V91.4136C92.2702 92.2491 91.794 92.7033 90.8241 92.7033H89.29V87.485ZM90.2599 88.2296V91.957H90.8067C91.1155 91.957 91.3003 91.8228 91.3003 91.4505V88.737C91.3003 88.3638 91.1155 88.2296 90.8067 88.2296H90.2599Z" fill="#263238"/>
<path d="M93.7365 91.912V92.7025H92.8015V91.912H93.7365Z" fill="#263238"/>
<path d="M95.862 88.1697C95.5533 88.1697 95.3597 88.3113 95.3597 88.6836V89.2425H94.4421V88.736C94.4421 87.9013 94.9358 87.4234 95.8882 87.4234C96.8406 87.4234 97.3342 87.9005 97.3342 88.736C97.3342 89.4291 97.0341 89.988 96.135 90.8006C95.562 91.3226 95.4032 91.5681 95.4032 91.8439C95.4032 91.8807 95.4033 91.9184 95.412 91.9552H97.2461V92.7007H94.4421V92.0599C94.4421 91.4781 94.6889 91.0387 95.412 90.3971C96.1534 89.7335 96.3644 89.3235 96.3644 88.7646C96.3644 88.2966 96.1708 88.1697 95.862 88.1697Z" fill="#263238"/>
<path d="M98.5374 88.1404C99.2865 88.1404 99.4539 87.8344 99.604 87.485H100.256V92.7025H99.2865V88.7222H98.5374V88.1404Z" fill="#263238"/>
<path d="M102.824 92.7621C101.846 92.7621 101.307 92.285 101.307 91.4504V91.0404C101.307 90.5412 101.484 90.1607 101.907 89.9594V89.9439C101.502 89.7581 101.307 89.4152 101.307 88.9005V88.7369C101.307 87.9022 101.846 87.4243 102.824 87.4243C103.803 87.4243 104.341 87.9014 104.341 88.7369V88.9005C104.341 89.4152 104.137 89.7581 103.741 89.9439V89.9594C104.165 90.1607 104.341 90.5404 104.341 91.0404V91.4504C104.341 92.285 103.803 92.7621 102.824 92.7621ZM102.277 89.0568C102.277 89.4742 102.507 89.6084 102.824 89.6084C103.133 89.6084 103.371 89.4742 103.371 89.0568V88.7663C103.371 88.2966 103.133 88.1698 102.824 88.1698C102.515 88.1698 102.277 88.2966 102.277 88.7663V89.0568ZM102.824 92.0166C103.133 92.0166 103.362 91.8898 103.371 91.4275V90.943C103.371 90.5331 103.169 90.3538 102.824 90.3538C102.48 90.3538 102.277 90.5331 102.277 90.943V91.4275C102.277 91.8898 102.515 92.0166 102.824 92.0166Z" fill="#263238"/>
<path d="M105.525 88.1404C106.275 88.1404 106.442 87.8344 106.592 87.485H107.244V92.7025H106.275V88.7222H105.525V88.1404Z" fill="#263238"/>
<path d="M111.267 91.4054C111.267 92.285 110.791 92.7621 109.786 92.7621C108.834 92.7621 108.34 92.285 108.34 91.4504V91.3162H109.257V91.5027C109.257 91.8759 109.451 92.0174 109.76 92.0174C110.103 92.0174 110.298 91.8759 110.298 91.3759V90.4291H110.281C110.113 90.727 109.83 90.8841 109.399 90.8841C108.685 90.8841 108.323 90.4586 108.323 89.691V88.7369C108.323 87.9022 108.844 87.4243 109.796 87.4243C110.747 87.4243 111.268 87.9014 111.268 88.7369V91.4054H111.267ZM110.297 89.6239V88.6845C110.297 88.3114 110.103 88.178 109.795 88.178C109.486 88.178 109.291 88.3122 109.291 88.6845V89.6239C109.291 89.9971 109.486 90.1378 109.795 90.1378C110.103 90.1378 110.297 89.9962 110.297 89.6239Z" fill="#263238"/>
<path d="M112.786 91.0176V91.502C112.786 91.8752 112.981 92.0094 113.29 92.0094C113.599 92.0094 113.792 91.8752 113.792 91.502V90.354C113.792 89.9808 113.599 89.8401 113.29 89.8401C112.981 89.8401 112.786 89.9816 112.786 90.354V90.5102H111.87L112.046 87.4842H114.603V88.2296H112.91L112.831 89.4743H112.849C113.026 89.228 113.298 89.0938 113.687 89.0938C114.401 89.0938 114.762 89.5193 114.762 90.286V91.4488C114.762 92.2835 114.268 92.7606 113.316 92.7606C112.363 92.7606 111.87 92.2835 111.87 91.4488V91.0168L112.786 91.0176Z" fill="#263238"/>
<path d="M115.347 88.7811C115.347 87.9014 115.823 87.4243 116.828 87.4243C117.78 87.4243 118.274 87.9014 118.274 88.7369V88.8711H117.356V88.6845C117.356 88.3114 117.162 88.1706 116.854 88.1706C116.51 88.1706 116.316 88.3122 116.316 88.8113V89.7581H116.333C116.5 89.4602 116.783 89.3031 117.215 89.3031C117.929 89.3031 118.29 89.7278 118.29 90.4954V91.4495C118.29 92.2842 117.769 92.7613 116.818 92.7613C115.866 92.7613 115.346 92.2842 115.346 91.4495L115.347 88.7811ZM116.317 90.5633V91.5027C116.317 91.8759 116.51 92.0101 116.819 92.0101C117.128 92.0101 117.322 91.8759 117.322 91.5027V90.5633C117.322 90.191 117.128 90.0486 116.819 90.0486C116.51 90.0486 116.317 90.1902 116.317 90.5633Z" fill="#263238"/>
<path d="M121.749 87.485V88.2002L120.321 92.7025H119.352L120.771 88.2296H118.84V87.4842L121.749 87.485Z" fill="#263238"/>
<path d="M103.423 83.9646H104.558V84.2469H104.175V85.94H103.807V84.2469H103.424V83.9646H103.423Z" fill="#263238"/>
<path d="M104.689 84.4391C104.689 84.1233 104.886 83.9424 105.246 83.9424C105.607 83.9424 105.804 84.1233 105.804 84.4391V85.4661C105.804 85.782 105.607 85.9628 105.246 85.9628C104.886 85.9628 104.689 85.782 104.689 85.4661V84.4391ZM105.057 85.4858C105.057 85.6265 105.129 85.6805 105.246 85.6805C105.364 85.6805 105.436 85.6273 105.436 85.4858V84.4187C105.436 84.2779 105.364 84.2239 105.246 84.2239C105.129 84.2239 105.057 84.2771 105.057 84.4187V85.4858Z" fill="#263238"/>
<path d="M96.879 111.145C98.2651 111.145 98.9774 111.846 98.9774 113.072V113.313H97.6301V112.995C97.6301 112.448 97.3707 112.24 96.9178 112.24C96.4638 112.24 96.2054 112.448 96.2054 112.995C96.2054 113.554 96.49 113.97 97.423 114.66C98.6145 115.547 98.991 116.182 98.991 117.058C98.991 118.285 98.266 118.985 96.8665 118.985C95.4679 118.985 94.7419 118.285 94.7419 117.058V116.588H96.0892V117.135C96.0892 117.683 96.3748 117.88 96.8277 117.88C97.2807 117.88 97.5662 117.683 97.5662 117.135C97.5662 116.576 97.2817 116.161 96.3486 115.471C95.1572 114.584 94.7816 113.949 94.7816 113.072C94.7807 111.847 95.493 111.145 96.879 111.145Z" fill="#263238"/>
<path d="M101.229 114.464H103.184V115.559H101.229V117.804H103.689V118.899H99.8032V111.234H103.689V112.329H101.229V114.464Z" fill="#263238"/>
<path d="M105.864 113.347H105.838V118.898H104.555V111.233H106.343L107.78 115.821H107.807V111.233H109.075V118.898H107.612L105.864 113.347Z" fill="#263238"/>
<path d="M110.097 111.234H112.351C113.776 111.234 114.475 111.901 114.475 113.127V117.004C114.475 118.23 113.776 118.898 112.351 118.898H110.097V111.234ZM111.521 112.328V117.803H112.325C112.778 117.803 113.051 117.606 113.051 117.058V113.072C113.051 112.525 112.779 112.328 112.325 112.328H111.521Z" fill="#263238"/>
<path d="M40.8789 95.8265C40.8789 95.8265 47.1199 97.4574 49.3044 102.043" stroke="#263238" stroke-miterlimit="10" stroke-linecap="round" stroke-linejoin="round"/>
<path d="M12.5972 241.185C13.294 230.99 13.7519 220.575 14.3539 212.19C15.6025 194.805 16.5384 183.141 18.4103 171.268C20.2832 159.396 19.9706 141.463 20.9065 135.198C21.8425 128.933 24.6329 127.609 26.8358 120.168C29.0387 112.727 31.019 97.91 34.637 95.8266C38.2549 93.7432 49.3044 89.8317 49.3044 89.8317V131.803C55.8579 140.321 63.6591 142.429 63.6591 142.429C68.6525 130.211 68.0282 125.362 73.0215 120.876C78.0149 116.391 81.6115 110.527 89.4514 112.977C93.1846 114.144 95.1784 115.336 93.3056 126.035C91.4327 136.734 87.6889 140.097 87.6889 140.097C87.0646 143.751 88.0006 154.383 89.5608 159.821C91.121 165.26 85.1918 179.711 82.3829 188.945C79.5741 198.179 64.5951 216.891 64.5951 216.891C64.5951 216.891 63.9708 227.2 65.2194 238.017C65.3336 239.011 65.4778 240.074 65.6443 241.184L66.6344 269.918L12.5972 269.057V241.185Z" fill="white"/>
<path opacity="0.4" d="M92.1953 116.127C91.8953 115.213 91.9427 114.613 92.1953 114.226C91.4617 113.653 90.5306 113.312 89.4504 112.979C81.6095 110.525 78.0129 116.394 73.0185 120.876C72.553 121.295 72.1349 121.716 71.7642 122.15C76.2842 120.71 82.2087 120.736 84.5906 123.53C87.5882 127.031 93.6936 120.702 92.1953 116.127Z" fill="#92E3A9"/>
<path opacity="0.4" d="M58.3309 230.89L55.8618 238.713C55.8618 238.713 59.3404 235.832 64.5389 228.843C64.2863 222.021 64.5941 216.891 64.5941 216.891C64.5941 216.891 79.5741 198.178 82.382 188.947C85.1898 179.71 91.122 165.258 89.5608 159.823C87.9986 154.38 87.0685 143.75 87.6908 140.095C87.6908 140.095 88.4719 139.388 89.5047 137.594C88.8262 137.04 88.0374 136.587 87.1537 136.421C87.1537 136.421 83.1466 144.444 84.1164 155.001C85.0863 165.552 82.9492 166.432 78.8153 180.151C74.6814 193.87 67.8191 209.402 64.5922 212.19C61.3672 214.977 59.9715 227.529 58.3309 230.89Z" fill="#92E3A9"/>
<path opacity="0.4" d="M52.4219 138.462C52.4219 138.462 47.4993 139.109 45.5199 140.096C45.5199 140.096 55.1282 142.217 55.7515 144.478C56.3748 146.733 58.4335 149.087 62.0854 146.326C62.0854 146.326 62.2751 144.598 62.6535 142.091C60.3344 141.217 54.4419 138.477 49.3063 131.807V89.8318C49.3063 89.8318 43.8474 91.7654 39.3438 93.6328C42.6801 94.0059 46.0958 94.8733 47.4296 96.7808C47.4296 96.7808 46.4201 100.295 41.8129 102.043C38.2637 103.389 41.8129 126.038 41.8129 126.038C41.8129 126.038 35.9911 127.252 34.1221 131.807C34.1221 131.807 43.6906 132.635 47.6425 135.202C51.5944 137.762 52.4219 138.462 52.4219 138.462Z" fill="#92E3A9"/>
<path opacity="0.4" d="M14.3529 212.19C13.8642 218.98 13.477 227.102 12.9805 235.365C14.2107 219.66 17.9419 192.703 17.9419 192.703C17.9419 192.703 21.2782 202.673 21.5308 201.613C22.2722 198.492 19.9686 180.852 20.1738 174.569C20.2687 171.722 20.0238 164.419 19.7238 157.297C19.4556 162.192 19.0695 167.1 18.4065 171.268C16.5384 183.139 15.5996 194.804 14.3529 212.19Z" fill="#92E3A9"/>
<path d="M12.5972 271V241.185C13.294 230.99 13.7519 220.575 14.3539 212.19C15.6025 194.805 16.5384 183.141 18.4103 171.268C20.2832 159.396 19.9706 141.463 20.9065 135.198C21.8425 128.933 24.6329 127.609 26.8358 120.168C29.0387 112.727 31.019 97.91 34.637 95.8266C38.2549 93.7432 49.3044 89.8317 49.3044 89.8317V131.803C55.8579 140.321 63.6591 142.429 63.6591 142.429C68.6525 130.211 68.0282 125.362 73.0215 120.876C78.0149 116.391 81.6115 110.527 89.4514 112.977C93.1846 114.144 95.1784 115.336 93.3056 126.035C91.4327 136.734 87.6889 140.097 87.6889 140.097C87.0646 143.751 88.0006 154.383 89.5608 159.821C91.1211 165.26 85.1918 179.711 82.3829 188.945C79.5741 198.179 64.5951 216.891 64.5951 216.891C64.5951 216.891 63.9708 227.2 65.2194 238.017C65.3336 239.011 65.4778 240.074 65.6443 241.183C65.6443 241.183 66.1476 259.736 68.5392 270.998" stroke="#263238" stroke-miterlimit="10" stroke-linecap="round" stroke-linejoin="round"/>
<path d="M63.6591 142.429C63.6591 142.429 62.0989 148.315 58.9784 149.634C55.858 150.953 51.3679 149.634 51.3679 149.634" stroke="#263238" stroke-miterlimit="10" stroke-linecap="round" stroke-linejoin="round"/>
<path d="M49.3044 131.803C49.3044 131.803 46.184 125.939 36.1982 131.025" stroke="#263238" stroke-miterlimit="10" stroke-linecap="round" stroke-linejoin="round"/>
<path d="M49.3045 108.109C49.3045 108.109 48.6802 104.998 43.531 104.207" stroke="#263238" stroke-miterlimit="10" stroke-linecap="round" stroke-linejoin="round"/>
<path d="M64.596 216.892C58.6667 223.244 59.7943 229.312 57.5139 232.478C55.2336 235.644 55.5462 246.989 55.5462 246.989" stroke="#263238" stroke-miterlimit="10" stroke-linecap="round" stroke-linejoin="round"/>
<path d="M21.5308 155.927C21.5308 155.927 21.5308 168.387 21.5308 178.007C21.5308 187.627 23.7153 196.862 23.7153 196.862" stroke="#263238" stroke-miterlimit="10" stroke-linecap="round" stroke-linejoin="round"/>
<path d="M87.689 140.097C87.689 140.097 87.689 136.328 86.4404 135.198" stroke="#263238" stroke-miterlimit="10" stroke-linecap="round" stroke-linejoin="round"/>
<path d="M84.2558 128.244C84.2558 128.244 81.4915 120.376 73.3777 123.807" stroke="#263238" stroke-miterlimit="10" stroke-linecap="round" stroke-linejoin="round"/>
<path d="M59.2524 140.486C53.2273 140.595 47.1199 138.337 43.531 141.084" stroke="#263238" stroke-miterlimit="10" stroke-linecap="round" stroke-linejoin="round"/>
<path d="M11.7213 262.368H10.0942V231.074H11.7213C12.7782 231.074 13.6357 231.798 13.6357 232.693V260.749C13.6357 261.643 12.7792 262.368 11.7213 262.368Z" fill="#263238"/>
<path d="M10.0952 235.129C10.0952 235.129 38.7051 228.806 66.1641 236.013C67.0361 236.242 67.6256 236.934 67.6256 237.706V252.553C67.6256 253.108 67.0361 253.528 66.3896 253.43C60.4961 252.532 34.5741 249.07 11.5112 253.627L10.0952 235.129Z" fill="#263238"/>
<path d="M11.339 234.851V231.505C11.339 230.403 10.2821 229.51 8.97734 229.51H5.76976C4.9606 229.51 4.21533 229.883 3.82623 230.483L1 234.851V260.425L3.79236 263.301C4.21339 263.735 4.84155 263.986 5.50456 263.986H8.97734C10.2811 263.986 11.339 263.093 11.339 261.99V234.851Z" fill="#92E3A9" stroke="#263238" stroke-miterlimit="10" stroke-linecap="round" stroke-linejoin="round"/>
<path d="M9.30934 233.202L15.8407 232.175C16.615 232.053 17.3302 232.555 17.3302 233.222V236.41L15.168 237.765V248.124H17.3302V253.527C17.3302 254.15 16.8124 254.688 16.0904 254.815L9.88814 255.901C8.958 256.064 8.08496 255.463 8.08496 254.659V234.447C8.08399 233.838 8.59891 233.313 9.30934 233.202Z" fill="#92E3A9" stroke="#263238" stroke-miterlimit="10" stroke-linecap="round" stroke-linejoin="round"/>
<path d="M9.55127 254.49L14.8718 253.461C15.2686 253.384 15.5502 253.086 15.5502 252.742V249.365" stroke="#263238" stroke-miterlimit="10" stroke-linecap="round" stroke-linejoin="round"/>
<path d="M13.3804 247.961V236.874L15.5184 235.499V233.421" stroke="#263238" stroke-miterlimit="10" stroke-linecap="round" stroke-linejoin="round"/>
<path d="M4.73315 231.533V261.153" stroke="#263238" stroke-miterlimit="10" stroke-linecap="round" stroke-linejoin="round"/>
<path d="M30.5796 243.095C30.0511 243.095 29.6223 242.732 29.6223 242.286V240.516C29.6223 240.07 30.0511 239.707 30.5796 239.707C31.108 239.707 31.5368 240.07 31.5368 240.516V242.286C31.5368 242.732 31.108 243.095 30.5796 243.095Z" fill="white"/>
<path d="M45.3208 243.424C44.7923 243.424 44.3635 243.062 44.3635 242.615V240.846C44.3635 240.399 44.7923 240.036 45.3208 240.036C45.8492 240.036 46.278 240.399 46.278 240.846V242.615C46.278 243.062 45.8502 243.424 45.3208 243.424Z" fill="white"/>
<path d="M58.4355 244.789C57.907 244.789 57.4783 244.426 57.4783 243.98V242.21C57.4783 241.763 57.907 241.4 58.4355 241.4C58.964 241.4 59.3928 241.763 59.3928 242.21V243.98C59.3928 244.427 58.964 244.789 58.4355 244.789Z" fill="white"/>
</svg>
