<svg width="658" height="616" viewBox="0 0 658 616" fill="none" xmlns="http://www.w3.org/2000/svg">
<path d="M127.607 114.1C127.852 113.892 128.098 113.684 128.344 113.476C196.209 56.2679 286.348 53.6893 352.015 115.271C386.242 147.367 447.014 141.224 490.494 152.834C640.412 192.862 614.492 383.286 540.438 475.336C473.611 558.402 328.816 577.169 231.532 536.298C146.047 500.384 85.8531 420.153 64.4312 336.261C62.2835 327.847 60.5161 319.349 59.1659 310.792C47.8983 239.376 69.5413 163.531 127.607 114.1Z" fill="#92E3A9"/>
<path opacity="0.7" d="M127.607 114.1C127.852 113.892 128.098 113.684 128.344 113.476C196.209 56.2679 286.348 53.6893 352.015 115.271C386.242 147.367 447.014 141.224 490.494 152.834C640.412 192.862 614.492 383.286 540.438 475.336C473.611 558.402 328.816 577.169 231.532 536.298C146.047 500.384 85.8531 420.153 64.4312 336.261C62.2835 327.847 60.5161 319.349 59.1659 310.792C47.8983 239.376 69.5413 163.531 127.607 114.1Z" fill="white"/>
<path d="M366.878 493.219C360.364 523.705 328.684 543.475 296.12 537.375C272.833 533.014 255.4 516.606 249.739 496.461" stroke="#263238" stroke-miterlimit="10" stroke-linecap="round" stroke-linejoin="round"/>
<path d="M366.062 467.784C367.793 473.895 368.441 480.352 367.838 486.921" stroke="#263238" stroke-miterlimit="10" stroke-linecap="round" stroke-linejoin="round"/>
<path d="M269.234 439.092C282.74 428.479 301.076 423.486 319.71 426.977C339.407 430.665 354.916 442.974 362.655 458.871" stroke="#263238" stroke-miterlimit="10" stroke-linecap="round" stroke-linejoin="round"/>
<path d="M252.547 430.212L250.874 426.015L266.728 437.307" stroke="#263238" stroke-miterlimit="10" stroke-linecap="round" stroke-linejoin="round"/>
<path d="M248.953 471.134C250.776 462.606 254.57 454.919 259.799 448.399L254.516 435.147" stroke="#263238" stroke-miterlimit="10" stroke-linecap="round" stroke-linejoin="round"/>
<path d="M247.824 484.558C247.724 482.294 247.769 480.004 247.969 477.702" stroke="#263238" stroke-miterlimit="10" stroke-linecap="round" stroke-linejoin="round"/>
<path d="M310.765 454.128C327.367 455.947 339.248 470.022 337.304 485.563C335.36 501.105 320.326 512.227 303.725 510.408C287.123 508.588 275.243 494.514 277.186 478.972C278.7 466.879 288.138 457.461 300.073 454.735" stroke="#263238" stroke-miterlimit="10" stroke-linecap="round" stroke-linejoin="round"/>
<path d="M303.346 513.441C284.956 511.424 271.793 495.833 273.948 478.617" stroke="#263238" stroke-miterlimit="10" stroke-linecap="round" stroke-linejoin="round"/>
<path d="M339.333 491.377C335.734 502.535 325.789 510.823 313.797 513.057" stroke="#263238" stroke-miterlimit="10" stroke-linecap="round" stroke-linejoin="round"/>
<path d="M276.083 470.668C281.546 457.782 295.737 449.405 311.144 451.094C329.534 453.111 342.697 468.702 340.542 485.918" stroke="#263238" stroke-miterlimit="10" stroke-linecap="round" stroke-linejoin="round"/>
<path d="M326.709 469.995L327.071 469.588" stroke="#263238" stroke-width="2" stroke-miterlimit="10" stroke-linecap="round" stroke-linejoin="round"/>
<path d="M321.647 475.665L324.169 472.84" stroke="#263238" stroke-width="2" stroke-miterlimit="10" stroke-linecap="round" stroke-linejoin="round"/>
<path d="M289.136 481.228L302.923 496.648L319.438 478.14" stroke="#263238" stroke-width="2" stroke-miterlimit="10" stroke-linecap="round" stroke-linejoin="round"/>
<path d="M536.433 430.451H391.851C358.278 430.451 331.062 404.972 331.062 373.542V238.19C331.062 206.76 358.278 181.281 391.851 181.281H536.433C570.006 181.281 597.222 206.76 597.222 238.19V373.542C597.221 404.972 570.006 430.451 536.433 430.451Z" fill="white" stroke="#263238" stroke-miterlimit="10" stroke-linecap="round" stroke-linejoin="round"/>
<path d="M412.592 290.987C408.558 284.751 389.181 284.853 387.427 287.624C387.427 287.624 397.027 316.677 407.726 313.666C418.425 310.654 412.592 290.987 412.592 290.987Z" fill="#92E3A9"/>
<mask id="mask0_114_318" style="mask-type:luminance" maskUnits="userSpaceOnUse" x="387" y="285" width="28" height="29">
<path d="M412.592 290.987C408.558 284.751 389.181 284.853 387.427 287.624C387.427 287.624 397.027 316.677 407.726 313.666C418.425 310.654 412.592 290.987 412.592 290.987Z" fill="white"/>
</mask>
<g mask="url(#mask0_114_318)">
<path opacity="0.3" d="M412.592 290.987C408.558 284.751 389.181 284.853 387.427 287.624C387.427 287.624 397.027 316.677 407.726 313.666C418.425 310.654 412.592 290.987 412.592 290.987Z" fill="black" fill-opacity="0.7"/>
</g>
<path d="M412.592 290.987C408.558 284.751 389.181 284.853 387.427 287.624C387.427 287.624 397.027 316.677 407.726 313.666C418.425 310.654 412.592 290.987 412.592 290.987Z" stroke="#263238" stroke-miterlimit="10" stroke-linecap="round" stroke-linejoin="round"/>
<path d="M389.475 305.771C389.475 305.771 387.424 307.962 387.424 311.252C387.424 313.962 392.946 368.086 409.989 386.927C413.56 390.882 417.641 393.28 422.286 393.332C436.712 393.477 443.697 382.765 452.879 357.913C454.021 354.82 455.207 351.498 456.439 347.948C465.365 322.297 476.331 268.795 476.331 268.795C476.331 268.795 456.872 273.02 445.328 283.733C440.282 288.415 435.026 301.702 431.666 311.459C430.014 316.256 428.817 320.189 428.317 321.85C428.162 322.4 428.074 322.701 428.074 322.701C427.63 321.092 426.899 319.453 426.034 317.854C426.023 317.833 426.023 317.823 426.012 317.812C425.979 317.77 425.956 317.729 425.944 317.687C422.462 311.427 416.797 305.906 416.797 305.906L412.595 290.989C412.595 290.989 411.109 293.709 404.39 294.673C397.66 295.639 387.425 287.625 387.425 287.625L389.475 305.771Z" fill="#92E3A9"/>
<mask id="mask1_114_318" style="mask-type:luminance" maskUnits="userSpaceOnUse" x="387" y="268" width="90" height="126">
<path d="M389.475 305.771C389.475 305.771 387.424 307.962 387.424 311.252C387.424 313.962 392.946 368.086 409.989 386.927C413.56 390.882 417.641 393.28 422.286 393.332C436.712 393.477 443.697 382.765 452.879 357.913C454.021 354.82 455.207 351.498 456.439 347.948C465.365 322.297 476.331 268.795 476.331 268.795C476.331 268.795 456.872 273.02 445.328 283.733C440.282 288.415 435.026 301.702 431.666 311.459C430.014 316.256 428.817 320.189 428.317 321.85C428.162 322.4 428.074 322.701 428.074 322.701C427.63 321.092 426.899 319.453 426.034 317.854C426.023 317.833 426.023 317.823 426.012 317.812C425.979 317.77 425.956 317.729 425.944 317.687C422.462 311.427 416.797 305.906 416.797 305.906L412.595 290.989C412.595 290.989 411.109 293.709 404.39 294.673C397.66 295.639 387.425 287.625 387.425 287.625L389.475 305.771Z" fill="white"/>
</mask>
<g mask="url(#mask1_114_318)">
<path opacity="0.3" d="M409.989 386.927C413.56 390.882 417.64 393.28 422.286 393.332C436.712 393.477 443.697 382.765 452.879 357.913L452.679 300.156C452.679 300.156 441.834 302.128 431.666 311.461C430.014 316.257 428.817 320.191 428.317 321.851C432.376 329.761 439.451 347.948 431.333 367.328C426.068 379.899 417.452 385.006 409.989 386.927Z" fill="black" fill-opacity="0.7"/>
</g>
<path d="M389.475 305.771C389.475 305.771 387.424 307.962 387.424 311.252C387.424 313.962 392.946 368.086 409.989 386.927C413.56 390.882 417.641 393.28 422.286 393.332C436.712 393.477 443.697 382.765 452.879 357.913C454.021 354.82 455.207 351.498 456.439 347.948C465.365 322.297 476.331 268.795 476.331 268.795C476.331 268.795 456.872 273.02 445.328 283.733C440.282 288.415 435.026 301.702 431.666 311.459C430.014 316.256 428.817 320.189 428.317 321.85C428.162 322.4 428.074 322.701 428.074 322.701C427.63 321.092 426.899 319.453 426.034 317.854C426.023 317.833 426.023 317.823 426.012 317.812C425.979 317.77 425.956 317.729 425.944 317.687C422.462 311.427 416.797 305.906 416.797 305.906L412.595 290.989C412.595 290.989 411.109 293.709 404.39 294.673C397.66 295.639 387.425 287.625 387.425 287.625L389.475 305.771Z" stroke="#263238" stroke-miterlimit="10" stroke-linecap="round" stroke-linejoin="round"/>
<path d="M435.353 340.334C436.387 345.405 436.428 350.903 433.923 355.62" stroke="#263238" stroke-miterlimit="10" stroke-linecap="round" stroke-linejoin="round"/>
<path d="M428.075 322.7C430.924 327.202 433.143 332.16 434.587 337.209" stroke="#263238" stroke-miterlimit="10" stroke-linecap="round" stroke-linejoin="round"/>
<path d="M437.269 329.088C437.269 329.088 435.239 323.863 429.756 322.699" stroke="#263238" stroke-miterlimit="10" stroke-linecap="round" stroke-linejoin="round"/>
<path d="M409.265 309.995C410.587 309.328 411.818 308.506 412.941 307.574" stroke="#263238" stroke-miterlimit="10" stroke-linecap="round" stroke-linejoin="round"/>
<path d="M389.473 305.771C393.768 310.072 400.467 312.884 406.711 311.011" stroke="#263238" stroke-miterlimit="10" stroke-linecap="round" stroke-linejoin="round"/>
<path d="M425.935 317.698C425.935 317.698 425.957 317.74 426.01 317.813C425.978 317.771 425.957 317.73 425.945 317.688C425.935 317.688 425.935 317.698 425.935 317.698Z" fill="#92E3A9" stroke="#263238" stroke-miterlimit="10" stroke-linecap="round" stroke-linejoin="round"/>
<path d="M553.033 428.036C553.033 428.036 555.488 409.904 556.984 403.983C563.721 377.326 587.451 315.563 583.624 297.288C579.692 278.506 555.639 262.071 516.818 260.265C480.814 258.583 451.132 270.531 444.034 284.421C437.26 297.677 437.536 389.167 439.255 430.451C439.255 430.451 513.432 430.451 538.157 430.451C545.966 430.451 553.033 428.036 553.033 428.036Z" fill="#92E3A9"/>
<mask id="mask2_114_318" style="mask-type:luminance" maskUnits="userSpaceOnUse" x="438" y="260" width="147" height="171">
<path d="M553.033 428.036C553.033 428.036 555.488 409.904 556.984 403.983C563.721 377.326 587.451 315.563 583.624 297.288C579.692 278.506 555.639 262.071 516.818 260.265C480.814 258.583 451.132 270.531 444.034 284.421C437.26 297.677 437.536 389.167 439.255 430.451C439.255 430.451 513.432 430.451 538.157 430.451C545.966 430.451 553.033 428.036 553.033 428.036Z" fill="white"/>
</mask>
<g mask="url(#mask2_114_318)">
<path opacity="0.3" d="M545.302 317.821C526.653 341.753 506.322 377.567 506.322 377.567L450.781 312.765C450.781 312.765 463.501 395.073 470.439 403.983C477.377 412.892 477.067 416.985 477.067 416.985C477.067 416.985 494.671 434.733 507.876 432.324C519.075 430.281 559.353 388.201 571.917 339.421L545.302 317.821Z" fill="black" fill-opacity="0.7"/>
</g>
<path d="M553.033 428.036C553.033 428.036 555.488 409.904 556.984 403.983C563.721 377.326 587.451 315.563 583.624 297.288C579.692 278.506 555.639 262.071 516.818 260.265C480.814 258.583 451.132 270.531 444.034 284.421C437.26 297.677 437.536 389.167 439.255 430.451C439.255 430.451 513.432 430.451 538.157 430.451C545.966 430.451 553.033 428.036 553.033 428.036Z" stroke="#263238" stroke-miterlimit="10" stroke-linecap="round" stroke-linejoin="round"/>
<path d="M532.493 263.925C532.493 263.925 513.135 271.699 492.184 265.256C492.184 265.256 494.882 259.12 494.895 254.057C494.908 251.519 494.224 249.24 492.184 248.156C492.184 248.156 493.132 247.182 494.737 245.642C494.75 245.642 494.75 245.642 494.75 245.642C502.686 238.078 526.782 216.813 534.625 229.491C534.625 229.491 526.413 230.218 532.493 263.925Z" fill="white" stroke="#263238" stroke-miterlimit="10" stroke-linecap="round" stroke-linejoin="round"/>
<path d="M510.608 240.443C510.608 240.443 507.423 251.371 494.895 254.057C494.908 251.519 494.224 249.24 492.184 248.156C492.184 248.156 493.132 247.182 494.737 245.642C494.75 245.642 494.75 245.642 494.75 245.642C502.423 242.822 510.608 240.443 510.608 240.443Z" fill="#263238"/>
<path d="M540.076 211.65C548.39 180.633 530.482 170.017 519.198 165.953C501.121 159.442 478.311 166.85 472.965 184.08C467.62 201.311 472.437 205.235 472.187 212.285C472.012 217.229 468.511 219.663 472.372 232.071C474.918 240.256 479.65 249.645 485.167 249.946C500.098 250.758 514.235 242.798 513.449 239.061" fill="white"/>
<path d="M540.076 211.65C548.39 180.633 530.482 170.017 519.198 165.953C501.121 159.442 478.311 166.85 472.965 184.08C467.62 201.311 472.437 205.235 472.187 212.285C472.012 217.229 468.511 219.663 472.372 232.071C474.918 240.256 479.65 249.645 485.167 249.946C500.098 250.758 514.235 242.798 513.449 239.061" stroke="#263238" stroke-miterlimit="10" stroke-linecap="round" stroke-linejoin="round"/>
<path d="M493.158 196.452C493.158 196.452 499.842 194.29 503.412 201.115" stroke="#263238" stroke-miterlimit="10" stroke-linecap="round" stroke-linejoin="round"/>
<path d="M470.437 195.433C470.437 195.433 475.408 191.482 480.389 197.072" stroke="#263238" stroke-miterlimit="10" stroke-linecap="round" stroke-linejoin="round"/>
<path d="M496.145 212.196C497.061 212.196 497.803 211.027 497.803 209.585C497.803 208.144 497.061 206.975 496.145 206.975C495.229 206.975 494.487 208.144 494.487 209.585C494.487 211.027 495.229 212.196 496.145 212.196Z" fill="#263238"/>
<path d="M475.409 208.157C475.409 209.599 476.151 210.768 477.067 210.768C477.983 210.768 478.726 209.599 478.726 208.157C478.726 206.716 477.983 205.547 477.067 205.547C476.15 205.547 475.409 206.716 475.409 208.157Z" fill="#263238"/>
<path d="M480.39 202.181C480.39 202.181 481.419 209.362 480.961 210.768C480.503 212.174 475.312 216.56 475.108 218.509C474.904 220.458 479.448 222.426 479.448 222.426" fill="white"/>
<path d="M480.39 202.181C480.39 202.181 481.419 209.362 480.961 210.768C480.503 212.174 475.312 216.56 475.108 218.509C474.904 220.458 479.448 222.426 479.448 222.426" stroke="#263238" stroke-miterlimit="10" stroke-linecap="round" stroke-linejoin="round"/>
<path d="M477.066 226.55C477.066 226.55 487.432 228.987 496.145 226.55C496.145 226.55 492.039 238.587 483.926 237.361C478.552 236.549 479.92 228.66 479.92 228.66L477.066 226.55Z" fill="#263238"/>
<path d="M505.646 179.071C505.646 179.071 501.359 176.309 495.397 177.609C489.432 178.909 488.495 190.648 488.495 190.648C488.495 190.648 485.309 188.006 484.746 184.757L482.872 189.793L477.9 185.407L476.236 190.649L474.26 186.87L470.435 193.847C470.435 193.847 464.685 186.91 465.576 181.549C468.005 166.927 480.399 154.914 506.322 156.205C519.373 156.854 524.242 165.23 524.242 165.23C524.242 165.23 537.004 163.613 542.666 169.811C561.941 190.917 549.853 213.836 531.548 235.547L525.274 214.853L519.2 214.204C519.2 214.204 519.427 211.077 519.239 207.827C519.05 204.578 516.988 199.823 516.988 199.823L514.739 200.768L515.676 196.805L510.538 199.271C510.538 199.271 512.711 182.969 510.538 180.207C508.363 177.446 505.646 179.071 505.646 179.071Z" fill="#263238"/>
<path d="M521.455 217.078C521.455 217.078 527.529 206.481 533.879 209.065C540.23 211.65 535.812 224.315 530.29 228.451C524.768 232.587 521.455 228.451 521.455 228.451" fill="white"/>
<path d="M521.455 217.078C521.455 217.078 527.529 206.481 533.879 209.065C540.23 211.65 535.812 224.315 530.29 228.451C524.768 232.587 521.455 228.451 521.455 228.451" stroke="#263238" stroke-miterlimit="10" stroke-linecap="round" stroke-linejoin="round"/>
<g opacity="0.2">
<path d="M511.154 174.71C511.154 174.71 508.888 168.768 501.454 168.311C494.02 167.854 488.678 175.396 488.509 180.652" stroke="white" stroke-miterlimit="10" stroke-linecap="round" stroke-linejoin="round"/>
<path d="M516.183 174.471C516.183 174.471 521.277 170.814 524.233 174.471C529.229 180.652 525.092 195.575 525.092 195.575" stroke="white" stroke-miterlimit="10" stroke-linecap="round" stroke-linejoin="round"/>
<path d="M523.115 170.113C523.115 170.113 528.416 167.064 532.958 172.944C537.499 178.825 537.005 193.11 537.005 193.11" stroke="white" stroke-miterlimit="10" stroke-linecap="round" stroke-linejoin="round"/>
<path d="M538.134 169.322C538.134 169.322 547.311 172.943 547.832 190.25" stroke="white" stroke-miterlimit="10" stroke-linecap="round" stroke-linejoin="round"/>
<path d="M516.801 170.113C516.801 170.113 511.639 161.913 496.355 164.656C481.07 167.398 478.775 182.024 478.775 182.024" stroke="white" stroke-miterlimit="10" stroke-linecap="round" stroke-linejoin="round"/>
<path d="M520.604 167.625C520.604 167.625 514.45 159.627 495.741 161.226C477.033 162.825 469.508 178.137 471.41 185.45" stroke="white" stroke-miterlimit="10" stroke-linecap="round" stroke-linejoin="round"/>
</g>
<path d="M367.292 270.18C367.292 270.18 389.544 254.145 399.243 252.522C408.942 250.898 442.316 257.721 442.316 257.721V294.721C442.316 294.721 421.436 296.866 412.065 303.287C402.693 309.709 370.416 310.739 370.416 310.739L367.292 270.18Z" fill="#757575" stroke="#263238" stroke-miterlimit="10" stroke-linecap="round" stroke-linejoin="round"/>
<path d="M388.177 258.717C388.177 258.717 388.687 254.006 389.473 251.407C390.26 248.807 395.638 249.086 396.853 250.002C398.068 250.919 399.242 252.521 399.242 252.521C399.242 252.521 397.374 253.031 396.853 253.193C396.333 253.356 395.812 262.779 388.177 258.717Z" fill="white" stroke="#263238" stroke-miterlimit="10" stroke-linecap="round" stroke-linejoin="round"/>
<path d="M416.585 202.237L394.412 262.409L426.24 272.687L448.413 212.516L416.585 202.237Z" fill="#92E3A9"/>
<mask id="mask3_114_318" style="mask-type:luminance" maskUnits="userSpaceOnUse" x="394" y="202" width="55" height="71">
<path d="M416.585 202.237L394.412 262.409L426.24 272.687L448.413 212.516L416.585 202.237Z" fill="white"/>
</mask>
<g mask="url(#mask3_114_318)">
<path opacity="0.5" d="M394.42 262.396L426.25 272.675L448.423 212.501L416.593 202.223L394.42 262.396ZM445.076 214.027L424.621 269.542L397.766 260.87L418.222 205.355L445.076 214.027Z" fill="black" fill-opacity="0.7"/>
</g>
<mask id="mask4_114_318" style="mask-type:luminance" maskUnits="userSpaceOnUse" x="394" y="202" width="55" height="71">
<path d="M416.585 202.237L394.412 262.409L426.24 272.687L448.413 212.516L416.585 202.237Z" fill="white"/>
</mask>
<g mask="url(#mask4_114_318)">
<path opacity="0.5" d="M421.32 210.057L418.581 217.489C418.275 218.32 417.306 218.762 416.418 218.475C415.53 218.188 415.057 217.282 415.364 216.45L418.102 209.019C418.409 208.187 419.378 207.745 420.266 208.032C421.155 208.319 421.627 209.226 421.32 210.057Z" fill="black" fill-opacity="0.7"/>
</g>
<mask id="mask5_114_318" style="mask-type:luminance" maskUnits="userSpaceOnUse" x="394" y="202" width="55" height="71">
<path d="M416.585 202.237L394.412 262.409L426.24 272.687L448.413 212.516L416.585 202.237Z" fill="white"/>
</mask>
<g mask="url(#mask5_114_318)">
<path opacity="0.5" d="M427.479 258.448L424.74 265.879C424.434 266.711 423.465 267.153 422.577 266.866C421.688 266.579 421.217 265.672 421.523 264.841L424.261 257.409C424.568 256.577 425.536 256.135 426.425 256.422C427.313 256.708 427.786 257.615 427.479 258.448Z" fill="black" fill-opacity="0.7"/>
</g>
<mask id="mask6_114_318" style="mask-type:luminance" maskUnits="userSpaceOnUse" x="394" y="202" width="55" height="71">
<path d="M416.585 202.237L394.412 262.409L426.24 272.687L448.413 212.516L416.585 202.237Z" fill="white"/>
</mask>
<g mask="url(#mask6_114_318)">
<path opacity="0.5" d="M411.45 234.228C409.55 239.384 412.475 245.004 417.981 246.783C423.489 248.561 429.492 245.823 431.393 240.669C433.293 235.513 430.368 229.892 424.861 228.113C419.355 226.334 413.35 229.073 411.45 234.228ZM426.963 238.51L427.75 238.764L427.271 240.064L426.484 239.81C425.817 240.871 424.663 241.145 423.197 240.671L422.456 240.432L423.01 238.93L423.859 239.204C424.63 239.453 425.025 239.225 425.211 238.72C425.398 238.215 425.238 237.807 424.465 237.558C423.694 237.309 423.032 237.419 421.744 238.199C420.17 239.145 419.141 239.313 417.906 238.914C416.456 238.446 415.738 237.584 415.885 236.387L415.082 236.129L415.561 234.829L416.364 235.088C417.026 234.04 418.164 233.762 419.63 234.235L419.97 234.345L419.416 235.847L418.968 235.702C418.197 235.454 417.797 235.647 417.612 236.153C417.425 236.658 417.612 237.043 418.384 237.292C419.155 237.541 419.801 237.426 421.106 236.651C422.695 235.71 423.709 235.536 424.943 235.935C426.408 236.408 427.13 237.304 426.963 238.51Z" fill="black" fill-opacity="0.7"/>
</g>
<path d="M416.585 202.237L394.412 262.409L426.24 272.687L448.413 212.516L416.585 202.237Z" stroke="#263238" stroke-width="0.999967" stroke-miterlimit="10" stroke-linecap="round" stroke-linejoin="round"/>
<path d="M418.738 167.906L401.27 106.391L368.732 114.489L386.199 176.004L418.738 167.906Z" fill="#92E3A9"/>
<mask id="mask7_114_318" style="mask-type:luminance" maskUnits="userSpaceOnUse" x="368" y="106" width="51" height="71">
<path d="M418.738 167.906L401.27 106.391L368.732 114.489L386.199 176.004L418.738 167.906Z" fill="white"/>
</mask>
<g mask="url(#mask7_114_318)">
<path opacity="0.5" d="M401.247 106.402L368.707 114.498L386.171 176.016L418.712 167.919L401.247 106.402ZM388.039 173.002L371.925 116.247L399.379 109.416L415.49 166.172L388.039 173.002Z" fill="black" fill-opacity="0.7"/>
</g>
<mask id="mask8_114_318" style="mask-type:luminance" maskUnits="userSpaceOnUse" x="368" y="106" width="51" height="71">
<path d="M418.738 167.906L401.27 106.391L368.732 114.489L386.199 176.004L418.738 167.906Z" fill="white"/>
</mask>
<g mask="url(#mask8_114_318)">
<path opacity="0.5" d="M410.12 163.887L407.963 156.289C407.722 155.439 408.261 154.567 409.171 154.34C410.079 154.114 411.01 154.62 411.253 155.471L413.41 163.069C413.65 163.919 413.111 164.791 412.201 165.018C411.292 165.243 410.36 164.737 410.12 163.887Z" fill="black" fill-opacity="0.7"/>
</g>
<mask id="mask9_114_318" style="mask-type:luminance" maskUnits="userSpaceOnUse" x="368" y="106" width="51" height="71">
<path d="M418.738 167.906L401.27 106.391L368.732 114.489L386.199 176.004L418.738 167.906Z" fill="white"/>
</mask>
<g mask="url(#mask9_114_318)">
<path opacity="0.5" d="M376.167 126.946L374.01 119.349C373.769 118.499 374.309 117.626 375.218 117.4C376.126 117.173 377.058 117.679 377.3 118.529L379.457 126.127C379.698 126.977 379.158 127.85 378.249 128.076C377.341 128.303 376.409 127.798 376.167 126.946Z" fill="black" fill-opacity="0.7"/>
</g>
<mask id="mask10_114_318" style="mask-type:luminance" maskUnits="userSpaceOnUse" x="368" y="106" width="51" height="71">
<path d="M418.738 167.906L401.27 106.391L368.732 114.489L386.199 176.004L418.738 167.906Z" fill="white"/>
</mask>
<g mask="url(#mask10_114_318)">
<path opacity="0.5" d="M403.903 138.673C402.406 133.402 396.629 130.264 390.999 131.665C385.369 133.066 382.019 138.474 383.514 143.745C385.009 149.015 390.787 152.153 396.417 150.751C402.048 149.352 405.399 143.943 403.903 138.673ZM388.478 143.222L387.674 143.422L387.296 142.093L388.1 141.892C388.021 140.662 388.816 139.833 390.315 139.46L391.072 139.271L391.507 140.806L390.64 141.022C389.852 141.218 389.66 141.613 389.807 142.131C389.953 142.647 390.329 142.902 391.119 142.705C391.907 142.509 392.392 142.072 392.996 140.752C393.738 139.144 394.492 138.467 395.754 138.153C397.237 137.784 398.347 138.124 398.937 139.194L399.757 138.989L400.135 140.319L399.315 140.523C399.39 141.738 398.611 142.563 397.112 142.937L396.765 143.023L396.329 141.488L396.787 141.374C397.575 141.178 397.791 140.808 397.645 140.291C397.498 139.775 397.115 139.553 396.327 139.751C395.538 139.946 395.07 140.38 394.45 141.703C393.692 143.315 392.954 143.989 391.692 144.303C390.191 144.677 389.058 144.311 388.478 143.222Z" fill="black" fill-opacity="0.7"/>
</g>
<path d="M418.738 167.906L401.27 106.391L368.732 114.489L386.199 176.004L418.738 167.906Z" stroke="#263238" stroke-width="0.999963" stroke-miterlimit="10" stroke-linecap="round" stroke-linejoin="round"/>
<path d="M367.292 270.18C367.292 270.18 399.569 259.994 408.247 258.533C416.923 257.07 442.316 257.721 442.316 257.721V294.721C442.316 294.721 415.809 302.251 411.719 305.264C407.628 308.276 370.416 310.739 370.416 310.739L367.292 270.18Z" fill="#999999" stroke="#263238" stroke-miterlimit="10" stroke-linecap="round" stroke-linejoin="round"/>
<path d="M411.34 274.586C409.639 283.152 410.861 294.635 404.803 301.585" stroke="#263238" stroke-miterlimit="10" stroke-linecap="round" stroke-linejoin="round"/>
<path d="M414.151 261.619C413.494 264.414 412.873 267.218 412.277 270.026" stroke="#263238" stroke-miterlimit="10" stroke-linecap="round" stroke-linejoin="round"/>
<path d="M446.278 138.861C446.278 142.599 443.041 145.63 439.048 145.63C435.055 145.63 431.818 142.599 431.818 138.861C431.818 135.123 435.055 132.093 439.048 132.093C443.041 132.091 446.278 135.122 446.278 138.861Z" fill="#BFBFBF" stroke="#263238" stroke-miterlimit="10" stroke-linecap="round" stroke-linejoin="round"/>
<path opacity="0.5" d="M443.085 143.077C445.573 140.989 445.781 137.409 443.551 135.08C441.321 132.752 437.496 132.557 435.009 134.644C432.522 136.732 432.314 140.312 434.543 142.641C436.774 144.969 440.598 145.165 443.085 143.077ZM436.587 136.882L436.269 136.55L436.896 136.024L437.215 136.356C437.865 135.999 438.526 136.163 439.119 136.783L439.419 137.096L438.694 137.704L438.35 137.346C438.039 137.019 437.773 137.03 437.528 137.236C437.285 137.441 437.244 137.687 437.556 138.013C437.868 138.34 438.232 138.457 439.11 138.403C440.181 138.34 440.747 138.524 441.246 139.046C441.833 139.659 441.937 140.279 441.506 140.84L441.831 141.178L441.204 141.705L440.879 141.366C440.235 141.718 439.581 141.56 438.987 140.941L438.851 140.797L439.576 140.188L439.757 140.378C440.069 140.704 440.328 140.71 440.572 140.506C440.815 140.301 440.836 140.06 440.525 139.735C440.213 139.409 439.855 139.297 438.97 139.345C437.894 139.402 437.333 139.225 436.833 138.702C436.238 138.081 436.144 137.443 436.587 136.882Z" fill="black" fill-opacity="0.7"/>
<path d="M412.033 85.375C412.033 89.1129 408.796 92.1437 404.803 92.1437C400.81 92.1437 397.573 89.1129 397.573 85.375C397.573 81.6372 400.81 78.6064 404.803 78.6064C408.796 78.6064 412.033 81.6372 412.033 85.375Z" fill="#BFBFBF" stroke="#263238" stroke-miterlimit="10" stroke-linecap="round" stroke-linejoin="round"/>
<path opacity="0.5" d="M408.841 89.5909C411.328 87.5027 411.536 83.9225 409.306 81.594C407.076 79.2655 403.252 79.0708 400.764 81.1579C398.277 83.2461 398.069 86.8263 400.298 89.1548C402.529 91.4845 406.353 91.6791 408.841 89.5909ZM402.342 83.3964L402.024 83.0638L402.651 82.5377L402.97 82.8703C403.62 82.5131 404.281 82.6769 404.874 83.2966L405.174 83.6095L404.449 84.2181L404.106 83.8596C403.794 83.5332 403.528 83.5442 403.283 83.75C403.04 83.9545 402.999 84.2009 403.311 84.5274C403.623 84.8539 403.987 84.9709 404.865 84.9167C405.936 84.8539 406.502 85.0374 407.002 85.5598C407.589 86.1733 407.693 86.793 407.263 87.3536L407.588 87.6924L406.96 88.2185L406.635 87.8797C405.991 88.232 405.337 88.0743 404.744 87.4546L404.607 87.3117L405.332 86.7031L405.514 86.8928C405.826 87.2193 406.085 87.2255 406.328 87.0209C406.572 86.8164 406.593 86.575 406.281 86.2485C405.969 85.922 405.611 85.8111 404.727 85.8592C403.649 85.9158 403.09 85.7384 402.59 85.2161C401.995 84.5951 401.899 83.957 402.342 83.3964Z" fill="black" fill-opacity="0.7"/>
<path d="M378.467 216.159C374.589 215.267 372.217 211.601 373.17 207.97C374.123 204.339 378.039 202.121 381.918 203.013C385.796 203.905 388.166 207.571 387.213 211.2C386.262 214.831 382.345 217.051 378.467 216.159Z" fill="#BFBFBF" stroke="#263238" stroke-miterlimit="10" stroke-linecap="round" stroke-linejoin="round"/>
<path opacity="0.5" d="M374.856 212.251C376.429 215.011 380.092 216.054 383.04 214.582C385.988 213.11 387.103 209.68 385.53 206.92C383.958 204.161 380.294 203.117 377.346 204.59C374.398 206.062 373.283 209.492 374.856 212.251ZM382.832 207.821L383.254 207.61L383.65 208.306L383.228 208.517C383.444 209.193 383.117 209.755 382.332 210.147L381.936 210.345L381.478 209.541L381.932 209.314C382.345 209.108 382.397 208.863 382.243 208.594C382.089 208.322 381.843 208.228 381.43 208.433C381.016 208.639 380.807 208.942 380.654 209.754C380.465 210.742 380.139 211.213 379.478 211.543C378.701 211.931 378.034 211.877 377.555 211.352L377.126 211.566L376.73 210.87L377.159 210.656C376.947 209.987 377.267 209.43 378.051 209.038L378.233 208.947L378.691 209.752L378.451 209.871C378.038 210.077 377.97 210.31 378.124 210.581C378.278 210.852 378.522 210.928 378.936 210.721C379.349 210.515 379.549 210.216 379.711 209.4C379.91 208.407 380.227 207.942 380.887 207.612C381.672 207.219 382.356 207.284 382.832 207.821Z" fill="black" fill-opacity="0.7"/>
<path d="M465.156 276.317C463.314 273.192 458.05 274.698 451.909 283.732C445.768 292.766 443.261 303.302 444.745 307.14C446.229 310.978 466.093 315.627 466.093 315.627L470.187 305.908L465.156 276.317Z" fill="#92E3A9"/>
<mask id="mask11_114_318" style="mask-type:luminance" maskUnits="userSpaceOnUse" x="444" y="274" width="27" height="42">
<path d="M465.156 276.317C463.314 273.192 458.05 274.698 451.909 283.732C445.768 292.766 443.261 303.302 444.745 307.14C446.229 310.978 466.093 315.627 466.093 315.627L470.187 305.908L465.156 276.317Z" fill="white"/>
</mask>
<g mask="url(#mask11_114_318)">
<path opacity="0.5" d="M465.156 276.317C463.314 273.192 458.05 274.698 451.909 283.732C445.768 292.766 443.261 303.302 444.745 307.14C446.229 310.978 466.093 315.627 466.093 315.627L470.187 305.908L465.156 276.317Z" fill="black" fill-opacity="0.7"/>
</g>
<path d="M465.156 276.317C463.314 273.192 458.05 274.698 451.909 283.732C445.768 292.766 443.261 303.302 444.745 307.14C446.229 310.978 466.093 315.627 466.093 315.627L470.187 305.908L465.156 276.317Z" stroke="#263238" stroke-miterlimit="10" stroke-linecap="round" stroke-linejoin="round"/>
<path d="M473.557 295.23L462.162 271.889C462.162 271.889 454.739 261.942 453.275 258.15C451.813 254.357 435.482 251.407 431.793 251.407C428.105 251.407 424.204 257.577 424.204 257.577L431.876 257.58C431.876 257.58 434.737 260.397 435.097 262.082C435.458 263.767 424.955 272.149 423.453 272.945C421.953 273.741 417.993 274.976 413.822 277.87C409.65 280.764 400.247 283.021 398.497 285.615C396.747 288.208 397.984 288.699 399.24 289.297C400.497 289.894 402.597 290.035 402.597 290.035C402.597 290.035 401.847 292.984 402.597 294.529C403.348 296.074 407.719 295.934 407.719 295.934C407.719 295.934 407.925 298.079 410.062 298.41C412.199 298.743 413.82 299.343 413.82 299.343C413.82 299.343 422.852 300.773 426.903 299.969C430.953 299.164 443.246 293.035 446.253 293.29C449.259 293.545 457.568 311.6 457.568 311.6C457.568 311.6 471.757 309.351 473.557 295.23Z" fill="white" stroke="#263238" stroke-miterlimit="10" stroke-linecap="round" stroke-linejoin="round"/>
<path d="M402.6 290.035C402.6 290.035 414.395 287.647 415.174 286.805C415.954 285.962 424.206 283.561 424.206 283.561" stroke="#263238" stroke-miterlimit="10" stroke-linecap="round" stroke-linejoin="round"/>
<path d="M407.722 295.935C407.722 295.935 414.345 294.671 416.65 294.39C418.954 294.109 428.407 290.036 428.407 290.036" stroke="#263238" stroke-miterlimit="10" stroke-linecap="round" stroke-linejoin="round"/>
<path d="M413.824 299.344C413.824 299.344 423.156 298.603 425.106 297.761C427.057 296.918 432.759 295.233 432.759 295.233" stroke="#263238" stroke-miterlimit="10" stroke-linecap="round" stroke-linejoin="round"/>
<path d="M551.696 284.944C537.851 293.487 529.488 314.122 529.488 314.122L507.875 351.757C507.875 351.757 489.701 309.866 484.551 309.33L465.156 276.317C465.156 276.317 467.45 295.665 459.366 303.878C451.283 312.091 444.744 307.14 444.744 307.14L450.78 322.746L452.283 330.16C452.283 330.16 477.778 401.763 486.112 406.194C494.446 410.627 513.41 412.614 529.488 401.591C545.565 390.569 573.073 348.885 575.678 335.249" fill="#92E3A9"/>
<path d="M551.696 284.944C537.851 293.487 529.488 314.122 529.488 314.122L507.875 351.757C507.875 351.757 489.701 309.866 484.551 309.33L465.156 276.317C465.156 276.317 467.45 295.665 459.366 303.878C451.283 312.091 444.744 307.14 444.744 307.14L450.78 322.746L452.283 330.16C452.283 330.16 477.778 401.763 486.112 406.194C494.446 410.627 513.41 412.614 529.488 401.591C545.565 390.569 573.073 348.885 575.678 335.249" stroke="#263238" stroke-miterlimit="10" stroke-linecap="round" stroke-linejoin="round"/>
<path d="M476.747 314.284C477.447 313.304 478.092 312.289 478.683 311.247" stroke="#263238" stroke-miterlimit="10" stroke-linecap="round" stroke-linejoin="round"/>
<path d="M460.411 324.07C465.96 323.518 471.126 320.804 474.709 316.826" stroke="#263238" stroke-miterlimit="10" stroke-linecap="round" stroke-linejoin="round"/>
<path d="M450.78 322.746C452.932 323.595 455.237 324.075 457.571 324.16" stroke="#263238" stroke-miterlimit="10" stroke-linecap="round" stroke-linejoin="round"/>
<path d="M513.544 368.352C513.634 370.072 513.518 371.805 513.102 373.486" stroke="#263238" stroke-miterlimit="10" stroke-linecap="round" stroke-linejoin="round"/>
<path d="M507.875 351.757C510.411 355.896 512.319 360.542 513.176 365.248" stroke="#263238" stroke-miterlimit="10" stroke-linecap="round" stroke-linejoin="round"/>
<path d="M519.828 358.496C519.828 358.496 515.898 353.887 511.417 351.757" stroke="#263238" stroke-miterlimit="10" stroke-linecap="round" stroke-linejoin="round"/>
<path d="M553.994 303.874C553.994 303.874 541.834 302.351 532.184 312.765" stroke="#263238" stroke-miterlimit="10" stroke-linecap="round" stroke-linejoin="round"/>
<path d="M566.854 335.712C564.522 336.02 562.14 335.685 560.038 334.678" stroke="#263238" stroke-miterlimit="10" stroke-linecap="round" stroke-linejoin="round"/>
<path d="M581.455 320.448C579.541 329.088 574.391 333.473 569.9 334.995" stroke="#263238" stroke-miterlimit="10" stroke-linecap="round" stroke-linejoin="round"/>
<path d="M524.126 271.338C524.126 271.338 503.939 275.73 492.692 268.689" stroke="#263238" stroke-miterlimit="10" stroke-linecap="round" stroke-linejoin="round"/>
<path d="M451.73 386.982C451.73 386.982 462.729 416.057 488.172 420.985" stroke="#263238" stroke-miterlimit="10" stroke-linecap="round" stroke-linejoin="round"/>
<path d="M525.259 427.282C523.95 428.206 522.579 429.053 521.184 429.858" stroke="#263238" stroke-miterlimit="10" stroke-linecap="round" stroke-linejoin="round"/>
<path d="M384.884 75.1619V100.722" stroke="#263238" stroke-miterlimit="10" stroke-linecap="round" stroke-linejoin="round"/>
<path d="M384.884 59.8259V70.0503" stroke="#263238" stroke-miterlimit="10" stroke-linecap="round" stroke-linejoin="round"/>
<path d="M384.884 50.2717V55.7406" stroke="#263238" stroke-miterlimit="10" stroke-linecap="round" stroke-linejoin="round"/>
<path d="M379.728 97.7345L384.884 103.71L390.042 97.7345" stroke="#263238" stroke-miterlimit="10" stroke-linecap="round" stroke-linejoin="round"/>
<path d="M398.534 203.153V228.715" stroke="#263238" stroke-miterlimit="10" stroke-linecap="round" stroke-linejoin="round"/>
<path d="M398.534 187.817V198.042" stroke="#263238" stroke-miterlimit="10" stroke-linecap="round" stroke-linejoin="round"/>
<path d="M398.534 178.263V183.732" stroke="#263238" stroke-miterlimit="10" stroke-linecap="round" stroke-linejoin="round"/>
<path d="M393.378 225.726L398.534 231.702L403.69 225.726" stroke="#263238" stroke-miterlimit="10" stroke-linecap="round" stroke-linejoin="round"/>
<path d="M425.505 126.229V151.79" stroke="#263238" stroke-miterlimit="10" stroke-linecap="round" stroke-linejoin="round"/>
<path d="M425.505 110.892V121.117" stroke="#263238" stroke-miterlimit="10" stroke-linecap="round" stroke-linejoin="round"/>
<path d="M425.505 101.338V106.807" stroke="#263238" stroke-miterlimit="10" stroke-linecap="round" stroke-linejoin="round"/>
<path d="M420.348 148.802L425.505 154.777L430.661 148.802" stroke="#263238" stroke-miterlimit="10" stroke-linecap="round" stroke-linejoin="round"/>
<path d="M187.884 407.815C187.455 423.861 195.939 422.565 195.939 422.565C196.464 421.239 197.676 419.412 199.136 417.293C203.576 410.897 210.376 401.93 207.824 396.619C206.666 394.209 204.5 390.846 202.151 387.461C197.602 380.936 192.379 374.338 192.379 374.338L215.032 370.825C215.032 370.825 231.163 377.07 243.894 377.793C244.227 377.812 244.559 377.822 244.881 377.822C256.508 378.033 254.63 369.499 254.63 366.748C254.63 365.573 251.487 363.424 247.809 361.306C242.565 358.294 236.205 355.332 236.205 355.332L239.647 348.655C242.038 349.056 244.023 349.136 245.664 348.957C254.48 348.052 253.268 339.93 251.841 336.385C251.433 335.371 249.407 333.835 246.543 332.067C237.48 326.474 220.126 318.683 220.126 318.683H194.674L169.631 382.683C169.628 382.684 188.302 391.771 187.884 407.815Z" fill="white"/>
<path opacity="0.4" d="M187.884 407.815C187.455 423.861 195.939 422.565 195.939 422.565C196.464 421.239 197.676 419.412 199.136 417.293C203.576 410.897 210.376 401.93 207.824 396.619C206.666 394.209 204.5 390.846 202.151 387.461C197.602 380.936 192.379 374.338 192.379 374.338L215.032 370.825C215.032 370.825 231.163 377.07 243.894 377.793C244.227 377.812 244.559 377.822 244.881 377.822C256.508 378.033 254.63 369.499 254.63 366.748C254.63 365.573 251.487 363.424 247.809 361.306C242.565 358.294 236.205 355.332 236.205 355.332L239.647 348.655C242.038 349.056 244.023 349.136 245.664 348.957C254.48 348.052 253.268 339.93 251.841 336.385C251.433 335.371 249.407 333.835 246.543 332.067C237.48 326.474 220.126 318.683 220.126 318.683H194.674L169.631 382.683C169.628 382.684 188.302 391.771 187.884 407.815Z" fill="#92E3A9"/>
<path opacity="0.4" d="M187.884 407.815C187.455 423.861 195.939 422.565 195.939 422.565C196.464 421.239 197.676 419.412 199.136 417.293C198.836 415.807 198.642 414.201 198.675 412.624C198.783 407.132 203.598 396.619 203.598 396.619L198.675 389.329C199.394 388.637 200.627 388.013 202.151 387.461C197.602 380.936 192.379 374.338 192.379 374.338L215.032 370.825C215.032 370.825 231.163 377.07 243.894 377.793C244.227 377.812 244.559 377.822 244.881 377.822C244.141 371.848 246.662 364.317 247.809 361.305C242.565 358.293 236.205 355.331 236.205 355.331L239.647 348.653C242.038 349.055 244.023 349.135 245.664 348.955C244.506 343.744 245.61 336.515 246.543 332.067C237.48 326.474 220.126 318.683 220.126 318.683H194.674L169.631 382.683C169.628 382.684 188.302 391.771 187.884 407.815Z" fill="#92E3A9"/>
<path d="M194.668 318.683H220.126C220.126 318.683 250.142 332.166 251.839 336.382C253.536 340.597 254.918 351.227 239.643 348.658L236.202 355.331C236.202 355.331 254.627 363.907 254.627 366.745C254.627 369.585 256.616 378.507 243.887 377.79C231.158 377.073 215.035 370.822 215.035 370.822L192.382 374.336C192.382 374.336 204.428 389.55 207.822 396.619C211.216 403.688 198.063 417.224 195.942 422.571C195.942 422.571 187.456 423.86 187.88 407.815C188.304 391.771 169.635 382.683 169.635 382.683" stroke="#263238" stroke-miterlimit="10" stroke-linecap="round" stroke-linejoin="round"/>
<path d="M200.703 393.757C200.703 393.757 194.323 390.412 190.849 396.619" stroke="#263238" stroke-miterlimit="10" stroke-linecap="round" stroke-linejoin="round"/>
<path d="M278.676 400.276H152.545C145.814 400.276 140.356 395.166 140.356 388.865V167.488C140.356 161.186 145.814 156.077 152.545 156.077H278.676C285.407 156.077 290.865 161.186 290.865 167.488V388.865C290.865 395.166 285.409 400.276 278.676 400.276Z" fill="#92E3A9" stroke="#263238" stroke-miterlimit="10" stroke-linecap="round" stroke-linejoin="round"/>
<path d="M286.2 165.984V390.999C286.2 393.81 283.765 396.089 280.762 396.089H150.459C147.456 396.089 145.022 393.81 145.022 390.999V165.984C145.022 163.172 147.456 160.893 150.459 160.893H179.413C181.318 160.893 183.024 162.002 183.688 163.674L184.919 166.767C185.583 168.439 187.289 169.548 189.195 169.548H242.027C243.932 169.548 245.638 168.439 246.302 166.767L247.533 163.674C248.197 162.002 249.903 160.893 251.809 160.893H280.762C283.765 160.893 286.2 163.172 286.2 165.984Z" fill="#263238"/>
<path d="M234.695 340.519H196.525C189.377 340.519 183.583 335.094 183.583 328.403C183.583 321.712 189.377 316.288 196.525 316.288H234.695C241.842 316.288 247.637 321.712 247.637 328.403C247.637 335.094 241.842 340.519 234.695 340.519Z" fill="#92E3A9" stroke="#263238" stroke-miterlimit="10" stroke-linecap="round" stroke-linejoin="round"/>
<path d="M203.148 163.43C203.148 164.593 202.141 165.535 200.899 165.535C199.657 165.535 198.65 164.593 198.65 163.43C198.65 162.267 199.657 161.324 200.899 161.324C202.14 161.324 203.148 162.267 203.148 163.43Z" fill="white" stroke="#263238" stroke-miterlimit="10" stroke-linecap="round" stroke-linejoin="round"/>
<path d="M232.572 163.43C232.572 164.159 231.941 164.749 231.162 164.749C230.383 164.749 229.751 164.158 229.751 163.43C229.751 162.7 230.383 162.109 231.162 162.109C231.941 162.109 232.572 162.7 232.572 163.43Z" fill="white" stroke="#263238" stroke-miterlimit="10" stroke-linecap="round" stroke-linejoin="round"/>
<path d="M224.563 164.174H207.697C207.258 164.174 206.901 163.84 206.901 163.43C206.901 163.018 207.258 162.684 207.697 162.684H224.563C225.003 162.684 225.358 163.018 225.358 163.43C225.358 163.841 225.003 164.174 224.563 164.174Z" fill="white" stroke="#263238" stroke-miterlimit="10" stroke-linecap="round" stroke-linejoin="round"/>
<path d="M262.799 303.911H168.423C159.348 303.911 151.99 297.023 151.99 288.527V197.711C151.99 189.216 159.348 182.327 168.423 182.327H262.799C271.874 182.327 279.231 189.216 279.231 197.711V288.527C279.231 297.024 271.875 303.911 262.799 303.911Z" fill="white" stroke="#263238" stroke-miterlimit="10" stroke-linecap="round" stroke-linejoin="round"/>
<path d="M202.77 233.77V215.495" stroke="#263238" stroke-miterlimit="10" stroke-linecap="round" stroke-linejoin="round"/>
<path d="M202.77 244.734V237.424" stroke="#263238" stroke-miterlimit="10" stroke-linecap="round" stroke-linejoin="round"/>
<path d="M202.77 251.565V247.654" stroke="#263238" stroke-miterlimit="10" stroke-linecap="round" stroke-linejoin="round"/>
<path d="M206.458 217.63L202.77 213.359L199.084 217.63" stroke="#263238" stroke-miterlimit="10" stroke-linecap="round" stroke-linejoin="round"/>
<path d="M228.451 226.992V208.718" stroke="#263238" stroke-miterlimit="10" stroke-linecap="round" stroke-linejoin="round"/>
<path d="M228.451 237.957V230.648" stroke="#263238" stroke-miterlimit="10" stroke-linecap="round" stroke-linejoin="round"/>
<path d="M228.451 244.787V240.878" stroke="#263238" stroke-miterlimit="10" stroke-linecap="round" stroke-linejoin="round"/>
<path d="M232.137 210.854L228.451 206.583L224.765 210.854" stroke="#263238" stroke-miterlimit="10" stroke-linecap="round" stroke-linejoin="round"/>
<path d="M215.025 214.72V196.446" stroke="#263238" stroke-miterlimit="10" stroke-linecap="round" stroke-linejoin="round"/>
<path d="M215.025 225.685V218.376" stroke="#263238" stroke-miterlimit="10" stroke-linecap="round" stroke-linejoin="round"/>
<path d="M215.025 232.515V228.606" stroke="#263238" stroke-miterlimit="10" stroke-linecap="round" stroke-linejoin="round"/>
<path d="M218.711 198.582L215.025 194.31L211.339 198.582" stroke="#263238" stroke-miterlimit="10" stroke-linecap="round" stroke-linejoin="round"/>
<path d="M235.479 244.73C238.052 234.453 231.238 224.169 220.26 221.76C209.282 219.351 198.297 225.729 195.724 236.007C193.151 246.284 199.964 256.568 210.942 258.977C221.92 261.386 232.905 255.007 235.479 244.73Z" fill="#92E3A9" stroke="#263238" stroke-miterlimit="10" stroke-linecap="round" stroke-linejoin="round"/>
<path d="M214.188 230.223V228.685H217.031V230.223C219.494 230.696 220.757 232.47 220.757 235.279V235.929H217.473V235.072C217.473 233.593 216.841 233.032 215.736 233.032C214.63 233.032 213.998 233.593 213.998 235.072C213.998 236.55 214.63 237.585 216.967 239.33C219.81 241.458 220.789 243.085 220.789 245.45C220.789 248.259 219.494 250.064 217.031 250.536V252.044H214.188V250.536C211.693 250.063 210.429 248.259 210.429 245.45V244.031H213.715V245.657C213.715 247.135 214.41 247.668 215.516 247.668C216.621 247.668 217.316 247.135 217.316 245.657C217.316 244.179 216.684 243.114 214.347 241.399C211.505 239.3 210.526 237.644 210.526 235.277C210.524 232.499 211.756 230.724 214.188 230.223Z" fill="#263238"/>
<path d="M199.701 271.237V270.653H200.781V271.237C201.716 271.417 202.195 272.09 202.195 273.157V273.404H200.949V273.079C200.949 272.517 200.71 272.305 200.29 272.305C199.87 272.305 199.629 272.518 199.629 273.079C199.629 273.641 199.87 274.033 200.757 274.695C201.836 275.504 202.207 276.121 202.207 277.019C202.207 278.086 201.716 278.77 200.781 278.949V279.522H199.701V278.949C198.755 278.771 198.275 278.086 198.275 277.019V276.48H199.522V277.098C199.522 277.66 199.786 277.86 200.205 277.86C200.625 277.86 200.888 277.658 200.888 277.098C200.888 276.537 200.649 276.132 199.762 275.481C198.683 274.685 198.312 274.056 198.312 273.158C198.31 272.101 198.779 271.427 199.701 271.237Z" fill="#263238"/>
<path d="M203.913 272.146C204.931 272.146 205.159 271.686 205.363 271.159H206.25V279.015H204.931V273.022H203.913V272.146Z" fill="#263238"/>
<path d="M207.741 273.043C207.741 271.787 208.449 271.067 209.743 271.067C211.036 271.067 211.744 271.785 211.744 273.043V277.129C211.744 278.385 211.036 279.103 209.743 279.103C208.449 279.103 207.741 278.385 207.741 277.129V273.043ZM209.06 277.207C209.06 277.768 209.323 277.982 209.743 277.982C210.162 277.982 210.426 277.769 210.426 277.207V272.966C210.426 272.404 210.162 272.192 209.743 272.192C209.323 272.192 209.06 272.405 209.06 272.966V277.207Z" fill="#263238"/>
<path d="M212.492 273.043C212.492 271.787 213.2 271.067 214.493 271.067C215.788 271.067 216.495 271.785 216.495 273.043V277.129C216.495 278.385 215.787 279.103 214.493 279.103C213.198 279.103 212.492 278.385 212.492 277.129V273.043ZM213.81 277.207C213.81 277.768 214.074 277.982 214.493 277.982C214.913 277.982 215.176 277.769 215.176 277.207V272.966C215.176 272.404 214.913 272.192 214.493 272.192C214.074 272.192 213.81 272.405 213.81 272.966V277.207Z" fill="#263238"/>
<path d="M217.242 273.043C217.242 271.787 217.95 271.067 219.244 271.067C220.538 271.067 221.246 271.785 221.246 273.043V277.129C221.246 278.385 220.538 279.103 219.244 279.103C217.95 279.103 217.242 278.385 217.242 277.129V273.043ZM218.562 277.207C218.562 277.768 218.826 277.982 219.245 277.982C219.665 277.982 219.928 277.769 219.928 277.207V272.966C219.928 272.404 219.665 272.192 219.245 272.192C218.826 272.192 218.562 272.405 218.562 272.966V277.207Z" fill="#263238"/>
<path d="M223.372 277.825V279.015H222.101V277.825H223.372Z" fill="#263238"/>
<path d="M224.224 273.043C224.224 271.787 224.932 271.067 226.226 271.067C227.519 271.067 228.227 271.785 228.227 273.043V277.129C228.227 278.385 227.519 279.103 226.226 279.103C224.932 279.103 224.224 278.385 224.224 277.129V273.043ZM225.544 277.207C225.544 277.768 225.807 277.982 226.227 277.982C226.647 277.982 226.91 277.769 226.91 277.207V272.966C226.91 272.404 226.647 272.192 226.227 272.192C225.807 272.192 225.544 272.405 225.544 272.966V277.207Z" fill="#263238"/>
<path d="M228.976 273.043C228.976 271.787 229.684 271.067 230.977 271.067C232.272 271.067 232.979 271.785 232.979 273.043V277.129C232.979 278.385 232.271 279.103 230.977 279.103C229.683 279.103 228.976 278.385 228.976 277.129V273.043ZM230.294 277.207C230.294 277.768 230.558 277.982 230.977 277.982C231.397 277.982 231.66 277.769 231.66 277.207V272.966C231.66 272.404 231.397 272.192 230.977 272.192C230.558 272.192 230.294 272.405 230.294 272.966V277.207Z" fill="#263238"/>
<path d="M192.444 286.285H193.762V294.14H192.444V286.285Z" fill="#263238"/>
<path d="M194.723 286.285H196.809C198.127 286.285 198.775 286.97 198.775 288.227V292.2C198.775 293.458 198.127 294.141 196.809 294.141H194.723V286.285ZM196.042 287.406V293.018H196.785C197.205 293.018 197.456 292.816 197.456 292.255V288.17C197.456 287.608 197.205 287.406 196.785 287.406H196.042Z" fill="#263238"/>
<path d="M200.769 292.95V294.14H199.497V292.95H200.769Z" fill="#263238"/>
<path d="M203.659 287.316C203.239 287.316 202.976 287.529 202.976 288.09V288.931H201.728V288.169C201.728 286.912 202.399 286.192 203.694 286.192C204.989 286.192 205.66 286.911 205.66 288.169C205.66 289.212 205.252 290.053 204.03 291.277C203.251 292.063 203.035 292.432 203.035 292.848C203.035 292.903 203.035 292.96 203.047 293.015H205.54V294.138H201.728V293.173C201.728 292.297 202.064 291.635 203.047 290.669C204.055 289.67 204.342 289.053 204.342 288.212C204.342 287.507 204.078 287.316 203.659 287.316Z" fill="#263238"/>
<path d="M207.296 287.272C208.314 287.272 208.542 286.811 208.746 286.285H209.633V294.14H208.314V288.148H207.296V287.272Z" fill="#263238"/>
<path d="M213.125 294.23C211.794 294.23 211.062 293.512 211.062 292.255V291.638C211.062 290.886 211.302 290.314 211.878 290.01V289.987C211.327 289.707 211.062 289.191 211.062 288.416V288.17C211.062 286.913 211.794 286.194 213.125 286.194C214.455 286.194 215.187 286.912 215.187 288.17V288.416C215.187 289.191 214.91 289.707 214.371 289.987V290.01C214.947 290.314 215.187 290.885 215.187 291.638V292.255C215.187 293.512 214.455 294.23 213.125 294.23ZM212.381 288.652C212.381 289.28 212.693 289.482 213.125 289.482C213.544 289.482 213.868 289.28 213.868 288.652V288.214C213.868 287.507 213.544 287.316 213.125 287.316C212.705 287.316 212.381 287.507 212.381 288.214V288.652ZM213.125 293.108C213.544 293.108 213.856 292.917 213.868 292.221V291.491C213.868 290.874 213.593 290.604 213.125 290.604C212.657 290.604 212.381 290.874 212.381 291.491V292.221C212.381 292.917 212.705 293.108 213.125 293.108Z" fill="#263238"/>
<path d="M216.798 287.272C217.816 287.272 218.044 286.811 218.248 286.285H219.135V294.14H217.816V288.148H216.798V287.272Z" fill="#263238"/>
<path d="M224.604 292.187C224.604 293.512 223.957 294.23 222.591 294.23C221.296 294.23 220.624 293.512 220.624 292.255V292.053H221.872V292.334C221.872 292.896 222.135 293.109 222.555 293.109C223.022 293.109 223.287 292.896 223.287 292.143V290.718H223.263C223.035 291.166 222.651 291.403 222.064 291.403C221.093 291.403 220.602 290.762 220.602 289.606V288.17C220.602 286.913 221.31 286.194 222.604 286.194C223.897 286.194 224.605 286.912 224.605 288.17V292.187H224.604ZM223.285 289.505V288.091C223.285 287.529 223.022 287.328 222.602 287.328C222.183 287.328 221.918 287.53 221.918 288.091V289.505C221.918 290.067 222.183 290.279 222.602 290.279C223.022 290.279 223.285 290.066 223.285 289.505Z" fill="#263238"/>
<path d="M226.67 291.603V292.333C226.67 292.895 226.935 293.097 227.354 293.097C227.774 293.097 228.037 292.895 228.037 292.333V290.604C228.037 290.043 227.774 289.831 227.354 289.831C226.935 289.831 226.67 290.044 226.67 290.604V290.84H225.424L225.663 286.284H229.14V287.406H226.839L226.731 289.28H226.756C226.995 288.909 227.366 288.707 227.894 288.707C228.865 288.707 229.356 289.348 229.356 290.502V292.253C229.356 293.509 228.685 294.228 227.39 294.228C226.095 294.228 225.424 293.509 225.424 292.253V291.602L226.67 291.603Z" fill="#263238"/>
<path d="M230.151 288.236C230.151 286.912 230.798 286.194 232.164 286.194C233.459 286.194 234.131 286.912 234.131 288.17V288.372H232.883V288.091C232.883 287.529 232.62 287.317 232.2 287.317C231.733 287.317 231.468 287.53 231.468 288.282V289.707H231.492C231.72 289.259 232.104 289.022 232.691 289.022C233.662 289.022 234.153 289.662 234.153 290.817V292.254C234.153 293.511 233.445 294.229 232.151 294.229C230.858 294.229 230.15 293.511 230.15 292.254L230.151 288.236ZM231.47 290.92V292.334C231.47 292.896 231.733 293.098 232.153 293.098C232.572 293.098 232.837 292.896 232.837 292.334V290.92C232.837 290.359 232.572 290.145 232.153 290.145C231.733 290.145 231.47 290.358 231.47 290.92Z" fill="#263238"/>
<path d="M238.856 286.285V287.362L236.915 294.14H235.597L237.526 287.406H234.9V286.284L238.856 286.285Z" fill="#263238"/>
<path d="M213.939 280.985H215.483V281.41H214.962V283.959H214.462V281.41H213.941V280.985H213.939Z" fill="#263238"/>
<path d="M215.661 281.699C215.661 281.224 215.929 280.951 216.419 280.951C216.908 280.951 217.177 281.224 217.177 281.699V283.245C217.177 283.721 216.908 283.993 216.419 283.993C215.929 283.993 215.661 283.721 215.661 283.245V281.699ZM216.161 283.275C216.161 283.487 216.259 283.568 216.419 283.568C216.578 283.568 216.677 283.488 216.677 283.275V281.669C216.677 281.457 216.578 281.375 216.419 281.375C216.259 281.375 216.161 281.455 216.161 281.669V283.275Z" fill="#263238"/>
<path d="M205.042 321.907C206.926 321.907 207.895 322.961 207.895 324.808V325.17H206.063V324.692C206.063 323.868 205.71 323.555 205.094 323.555C204.477 323.555 204.126 323.868 204.126 324.692C204.126 325.534 204.513 326.16 205.781 327.198C207.401 328.534 207.913 329.49 207.913 330.809C207.913 332.656 206.928 333.711 205.025 333.711C203.123 333.711 202.136 332.656 202.136 330.809V330.101H203.968V330.925C203.968 331.749 204.356 332.046 204.972 332.046C205.588 332.046 205.976 331.749 205.976 330.925C205.976 330.084 205.589 329.458 204.321 328.419C202.701 327.084 202.19 326.128 202.19 324.808C202.189 322.963 203.157 321.907 205.042 321.907Z" fill="#263238"/>
<path d="M210.956 326.903H213.614V328.552H210.956V331.932H214.301V333.58H209.017V322.04H214.301V323.688H210.956V326.903Z" fill="#263238"/>
<path d="M217.258 325.221H217.223V333.579H215.479V322.039H217.91L219.864 328.947H219.899V322.039H221.625V333.579H219.635L217.258 325.221Z" fill="#263238"/>
<path d="M223.013 322.04H226.078C228.015 322.04 228.967 323.045 228.967 324.891V330.727C228.967 332.574 228.015 333.579 226.078 333.579H223.013V322.04ZM224.95 323.687V331.931H226.042C226.658 331.931 227.029 331.634 227.029 330.809V324.808C227.029 323.984 226.66 323.687 226.042 323.687H224.95Z" fill="#263238"/>
<path d="M128.901 298.844C128.901 298.844 137.386 301.299 140.357 308.203" stroke="#263238" stroke-miterlimit="10" stroke-linecap="round" stroke-linejoin="round"/>
<path d="M90.4473 517.689C91.3948 502.339 92.0173 486.66 92.8358 474.035C94.5334 447.86 95.806 430.301 98.3512 412.425C100.898 394.55 100.473 367.551 101.745 358.119C103.018 348.687 106.812 346.693 109.807 335.491C112.802 324.288 115.495 301.98 120.414 298.844C125.333 295.707 140.357 289.818 140.357 289.818V353.009C149.267 365.832 159.874 369.006 159.874 369.006C166.663 350.611 165.815 343.31 172.604 336.556C179.393 329.804 184.283 320.977 194.943 324.665C200.019 326.421 202.73 328.216 200.183 344.324C197.637 360.433 192.546 365.495 192.546 365.495C191.698 370.997 192.97 387.003 195.092 395.191C197.213 403.379 189.151 425.136 185.332 439.038C181.513 452.941 161.147 481.113 161.147 481.113C161.147 481.113 160.298 496.634 161.996 512.92C162.151 514.415 162.347 516.016 162.573 517.686L163.92 560.948L90.4473 559.651V517.689Z" fill="white"/>
<path opacity="0.4" d="M198.674 329.407C198.266 328.031 198.331 327.128 198.674 326.545C197.676 325.682 196.41 325.169 194.942 324.668C184.281 320.973 179.391 329.809 172.6 336.556C171.967 337.188 171.399 337.822 170.895 338.475C177.04 336.306 185.095 336.346 188.334 340.553C192.41 345.824 200.711 336.295 198.674 329.407Z" fill="#92E3A9"/>
<path opacity="0.4" d="M152.63 502.189L149.272 513.967C149.272 513.967 154.002 509.629 161.07 499.107C160.727 488.835 161.145 481.113 161.145 481.113C161.145 481.113 181.513 452.939 185.331 439.042C189.149 425.135 197.214 403.376 195.092 395.193C192.968 386.999 191.703 370.995 192.549 365.492C192.549 365.492 193.611 364.428 195.015 361.727C194.093 360.893 193.02 360.211 191.819 359.961C191.819 359.961 186.371 372.039 187.689 387.935C189.008 403.819 186.102 405.144 180.481 425.799C174.861 446.453 165.53 469.838 161.143 474.035C156.758 478.232 154.86 497.129 152.63 502.189Z" fill="#92E3A9"/>
<path opacity="0.4" d="M144.595 363.033C144.595 363.033 137.902 364.008 135.211 365.494C135.211 365.494 148.275 368.687 149.123 372.091C149.97 375.485 152.769 379.03 157.734 374.873C157.734 374.873 157.992 372.272 158.507 368.497C155.354 367.182 147.342 363.056 140.359 353.015V289.818C140.359 289.818 132.937 292.729 126.814 295.541C131.35 296.103 135.994 297.408 137.808 300.28C137.808 300.28 136.435 305.572 130.171 308.202C125.345 310.23 130.171 344.329 130.171 344.329C130.171 344.329 122.255 346.156 119.714 353.015C119.714 353.015 132.724 354.26 138.097 358.125C143.47 361.98 144.595 363.033 144.595 363.033Z" fill="#92E3A9"/>
<path opacity="0.4" d="M92.8346 474.035C92.17 484.257 91.6436 496.486 90.9685 508.927C92.6411 485.281 97.7143 444.696 97.7143 444.696C97.7143 444.696 102.251 459.707 102.594 458.11C103.602 453.412 100.47 426.853 100.749 417.395C100.878 413.108 100.545 402.114 100.137 391.39C99.7725 398.76 99.2475 406.15 98.346 412.425C95.8061 430.297 94.5296 447.859 92.8346 474.035Z" fill="#92E3A9"/>
<path d="M90.4473 562.577V517.689C91.3948 502.339 92.0173 486.66 92.8358 474.035C94.5334 447.86 95.806 430.301 98.3512 412.425C100.898 394.55 100.473 367.551 101.745 358.119C103.018 348.687 106.812 346.693 109.807 335.491C112.802 324.288 115.495 301.98 120.414 298.844C125.333 295.707 140.357 289.818 140.357 289.818V353.009C149.267 365.832 159.874 369.006 159.874 369.006C166.663 350.611 165.815 343.31 172.604 336.556C179.393 329.804 184.283 320.977 194.943 324.665C200.019 326.421 202.73 328.216 200.183 344.324C197.637 360.433 192.546 365.495 192.546 365.495C191.698 370.997 192.97 387.003 195.092 395.191C197.213 403.379 189.151 425.136 185.332 439.038C181.513 452.941 161.147 481.113 161.147 481.113C161.147 481.113 160.298 496.634 161.996 512.92C162.151 514.415 162.347 516.016 162.573 517.686C162.573 517.686 163.258 545.618 166.509 562.574" stroke="#263238" stroke-miterlimit="10" stroke-linecap="round" stroke-linejoin="round"/>
<path d="M159.874 369.006C159.874 369.006 157.753 377.868 153.51 379.854C149.267 381.84 143.162 379.854 143.162 379.854" stroke="#263238" stroke-miterlimit="10" stroke-linecap="round" stroke-linejoin="round"/>
<path d="M140.357 353.009C140.357 353.009 136.114 344.18 122.537 351.837" stroke="#263238" stroke-miterlimit="10" stroke-linecap="round" stroke-linejoin="round"/>
<path d="M140.357 317.335C140.357 317.335 139.508 312.652 132.507 311.461" stroke="#263238" stroke-miterlimit="10" stroke-linecap="round" stroke-linejoin="round"/>
<path d="M161.148 481.115C153.086 490.677 154.619 499.814 151.519 504.58C148.418 509.347 148.843 526.427 148.843 526.427" stroke="#263238" stroke-miterlimit="10" stroke-linecap="round" stroke-linejoin="round"/>
<path d="M102.594 389.328C102.594 389.328 102.594 408.088 102.594 422.571C102.594 437.054 105.564 450.958 105.564 450.958" stroke="#263238" stroke-miterlimit="10" stroke-linecap="round" stroke-linejoin="round"/>
<path d="M192.547 365.495C192.547 365.495 192.547 359.82 190.849 358.119" stroke="#263238" stroke-miterlimit="10" stroke-linecap="round" stroke-linejoin="round"/>
<path d="M187.879 347.651C187.879 347.651 184.12 335.805 173.088 340.969" stroke="#263238" stroke-miterlimit="10" stroke-linecap="round" stroke-linejoin="round"/>
<path d="M153.882 366.081C145.69 366.245 137.386 362.845 132.507 366.981" stroke="#263238" stroke-miterlimit="10" stroke-linecap="round" stroke-linejoin="round"/>
<path d="M89.2564 549.58H87.0442V502.466H89.2564C90.6935 502.466 91.8594 503.557 91.8594 504.903V547.143C91.8594 548.489 90.6948 549.58 89.2564 549.58Z" fill="#263238"/>
<path d="M87.0454 508.571C87.0454 508.571 125.945 499.051 163.28 509.901C164.466 510.246 165.267 511.289 165.267 512.45V534.804C165.267 535.639 164.466 536.272 163.587 536.125C155.573 534.773 120.328 529.56 88.9707 536.421L87.0454 508.571Z" fill="#263238"/>
<path d="M88.7365 508.152V503.115C88.7365 501.456 87.2994 500.111 85.5254 500.111H81.1642C80.064 500.111 79.0507 500.672 78.5217 501.577L74.679 508.152V546.656L78.4756 550.986C79.0481 551.639 79.9022 552.017 80.8036 552.017H85.5254C87.2981 552.017 88.7365 550.672 88.7365 549.012V508.152Z" fill="#92E3A9" stroke="#263238" stroke-miterlimit="10" stroke-linecap="round" stroke-linejoin="round"/>
<path d="M85.9768 505.669L94.8571 504.123C95.9099 503.94 96.8824 504.696 96.8824 505.7V510.499L93.9425 512.539V528.135H96.8824V536.27C96.8824 537.209 96.1784 538.018 95.1966 538.209L86.7637 539.844C85.499 540.089 84.312 539.185 84.312 537.975V507.545C84.3107 506.627 85.0108 505.837 85.9768 505.669Z" fill="#92E3A9" stroke="#263238" stroke-miterlimit="10" stroke-linecap="round" stroke-linejoin="round"/>
<path d="M86.3059 537.72L93.54 536.171C94.0795 536.056 94.4625 535.607 94.4625 535.088V530.004" stroke="#263238" stroke-miterlimit="10" stroke-linecap="round" stroke-linejoin="round"/>
<path d="M91.512 527.891V511.199L94.419 509.128V506" stroke="#263238" stroke-miterlimit="10" stroke-linecap="round" stroke-linejoin="round"/>
<path d="M79.7549 503.157V547.752" stroke="#263238" stroke-miterlimit="10" stroke-linecap="round" stroke-linejoin="round"/>
<path d="M114.897 520.564C114.179 520.564 113.596 520.019 113.596 519.346V516.682C113.596 516.01 114.179 515.464 114.897 515.464C115.616 515.464 116.199 516.01 116.199 516.682V519.346C116.199 520.019 115.616 520.564 114.897 520.564Z" fill="white"/>
<path d="M134.94 521.06C134.221 521.06 133.638 520.514 133.638 519.841V517.178C133.638 516.505 134.221 515.959 134.94 515.959C135.658 515.959 136.241 516.505 136.241 517.178V519.841C136.241 520.515 135.66 521.06 134.94 521.06Z" fill="white"/>
<path d="M152.772 523.115C152.053 523.115 151.47 522.569 151.47 521.896V519.231C151.47 518.559 152.053 518.013 152.772 518.013C153.49 518.013 154.073 518.559 154.073 519.231V521.896C154.073 522.57 153.49 523.115 152.772 523.115Z" fill="white"/>
</svg>
