<svg width="39" height="33" viewBox="0 0 39 33" fill="none" xmlns="http://www.w3.org/2000/svg">
<g clip-path="url(#clip0_122_112)">
<path d="M23.0728 16.5003L38.2589 3.65006C39.247 2.81419 39.247 1.46267 38.2589 0.626902C37.271 -0.208967 35.6738 -0.208967 34.6861 0.626902L19.4997 13.477L4.31396 0.626902C3.32566 -0.208967 1.72904 -0.208967 0.741221 0.626902C-0.247074 1.46277 -0.247074 2.81419 0.741221 3.65006L15.9269 16.5003L0.741339 29.3504C-0.246955 30.1863 -0.246955 31.5378 0.741339 32.3736C0.975655 32.5724 1.25409 32.7301 1.56066 32.8376C1.86722 32.9451 2.19586 33.0003 2.52771 33C3.17441 33 3.82135 32.7905 4.31408 32.3736L19.4997 19.5235L34.6861 32.3736C34.9205 32.5724 35.1989 32.7301 35.5055 32.8376C35.812 32.9451 36.1407 33.0003 36.4725 33C37.1192 33 37.7661 32.7905 38.2589 32.3736C39.247 31.5377 39.247 30.1863 38.2589 29.3504L23.0728 16.5003Z" fill="black"/>
</g>
<defs>
<clipPath id="clip0_122_112">
<rect width="39" height="33" fill="white"/>
</clipPath>
</defs>
</svg>
