<svg width="92" height="83" viewBox="0 0 92 83" fill="none" xmlns="http://www.w3.org/2000/svg">
<g clip-path="url(#clip0_124_123)">
<path d="M78.527 12.155C69.8388 4.31697 58.2869 0 46 0C33.7131 0 22.1612 4.31681 13.473 12.155C4.78508 19.9933 0 30.4151 0 41.5C0 52.5849 4.7849 63.0067 13.473 70.845C22.1612 78.683 33.7131 83 46 83C58.2869 83 69.8388 78.6832 78.527 70.845C87.2149 63.0067 92 52.5849 92 41.5C92 30.4151 87.2151 19.9933 78.527 12.155ZM19.9642 69.5931C21.4833 57.802 32.72 48.6988 46 48.6988C53.0006 48.6988 59.584 51.1594 64.5358 55.6264C68.7191 59.4011 71.3577 64.3295 72.0364 69.5924C64.9824 74.9224 55.8997 78.1367 46 78.1367C36.1003 78.1367 27.0184 74.9231 19.9642 69.5931ZM46 43.6896C38.2966 43.6896 32.0286 38.0349 32.0286 31.0851C32.0286 24.1347 38.2968 18.4805 46 18.4805C53.7032 18.4805 59.9714 24.1347 59.9714 31.0851C59.9714 38.0349 53.7034 43.6898 46 43.6898V43.6896ZM76.6761 65.4815C75.291 60.4496 72.4115 55.8535 68.3472 52.1879C65.0343 49.1989 61.1148 46.9566 56.8402 45.5514C61.9789 42.4075 65.362 37.0958 65.362 31.0851C65.362 21.4536 56.676 13.6172 46 13.6172C35.324 13.6172 26.638 21.4536 26.638 31.0851C26.638 37.0991 30.024 42.4125 35.1668 45.556C31.234 46.849 27.5948 48.8481 24.4636 51.4798C19.9291 55.2893 16.7805 60.147 15.3205 65.4776C9.13747 59.047 5.39062 50.6611 5.39062 41.5C5.39062 21.2984 23.6079 4.86328 46 4.86328C68.3921 4.86328 86.6094 21.2984 86.6094 41.5C86.6094 50.6629 82.8611 59.0509 76.6761 65.4815Z" fill="#0D2F56"/>
</g>
<defs>
<clipPath id="clip0_124_123">
<rect width="92" height="83" fill="white"/>
</clipPath>
</defs>
</svg>
