<svg width="37" height="33" viewBox="0 0 37 33" fill="none" xmlns="http://www.w3.org/2000/svg">
<g clip-path="url(#clip0_124_128)">
<path d="M36.6494 31.2047L27.0966 22.8207C29.5982 20.3967 31.1352 17.1908 31.1352 13.6631C31.134 6.11671 24.1648 0 15.5673 0C6.96967 0 0.000488281 6.11671 0.000488281 13.6631C0.000488281 21.2095 6.96967 27.3262 15.5673 27.3262C19.282 27.3262 22.6891 26.1803 25.3653 24.2751L34.9552 32.6921C35.4224 33.1026 36.1811 33.1026 36.6483 32.6921C36.7595 32.5953 36.8478 32.4796 36.9082 32.3519C36.9685 32.2243 36.9996 32.0871 36.9997 31.9486C36.9998 31.81 36.9689 31.6728 36.9087 31.5451C36.8486 31.4173 36.7604 31.3016 36.6494 31.2047ZM15.5673 25.2241C8.29277 25.2241 2.39565 20.0481 2.39565 13.6631C2.39565 7.27816 8.29277 2.10215 15.5673 2.10215C22.8418 2.10215 28.7389 7.27816 28.7389 13.6631C28.7389 20.0481 22.8418 25.2241 15.5673 25.2241Z" fill="black"/>
</g>
<defs>
<clipPath id="clip0_124_128">
<rect width="37" height="33" fill="white"/>
</clipPath>
</defs>
</svg>
