<svg width="527" height="534" viewBox="0 0 527 534" fill="none" xmlns="http://www.w3.org/2000/svg">
<path d="M343.256 42.8161C304.458 43.4889 274.546 75.6357 241.334 95.9705C191.185 126.675 126.775 132.913 84.4149 173.934C55.4194 202.055 41.106 244.39 45.1534 284.836C49.2008 325.281 71.124 363.195 102.828 388.122C123.044 404.003 146.77 414.715 170.98 423.099C195.517 431.579 221.066 437.869 246.994 438.2C282.925 438.66 318.224 427.649 350.729 412.109C373.337 401.312 395.134 388.111 412.915 370.308C429.716 353.497 442.596 332.842 451.418 310.649C473.225 255.797 469.757 192.924 450.849 136.971C435.207 90.6945 396.968 41.8763 343.256 42.8161Z" fill="#92E3A9"/>
<path opacity="0.7" d="M343.256 42.8161C304.458 43.4889 274.546 75.6357 241.334 95.9705C191.185 126.675 126.775 132.913 84.4149 173.934C55.4194 202.055 41.106 244.39 45.1534 284.836C49.2008 325.281 71.124 363.195 102.828 388.122C123.044 404.003 146.77 414.715 170.98 423.099C195.517 431.579 221.066 437.869 246.994 438.2C282.925 438.66 318.224 427.649 350.729 412.109C373.337 401.312 395.134 388.111 412.915 370.308C429.716 353.497 442.596 332.842 451.418 310.649C473.225 255.797 469.757 192.924 450.849 136.971C435.207 90.6945 396.968 41.8763 343.256 42.8161Z" fill="white"/>
<path opacity="0.1" d="M367.308 269.189C367.034 261.147 366.518 252.571 365.664 243.696C364.515 225.967 362.323 209.413 358.349 199C336.468 194.461 222.794 202.92 222.71 202.92L222.004 199.716L221.719 198.445L221.213 196.213L221.076 195.7C220.339 192.689 219.506 189.709 218.536 186.75C218.536 186.75 132.361 178.954 103.777 186.516C103.777 186.772 103.777 187.017 103.777 187.274L103.861 194.419C103.945 208.249 103.629 221.226 104.335 235.473V235.579C104.199 235.567 104.061 235.567 103.924 235.579C102.815 235.728 101.768 236.185 100.899 236.899C100.031 237.614 99.3739 238.558 99.0022 239.627C98.7185 240.456 98.6143 241.338 98.6965 242.212L99.0759 246.708C99.0759 246.783 99.0759 246.847 99.0759 246.922C100.13 258.264 101.184 269.499 101.184 269.499C101.184 269.499 101.732 269.552 102.628 269.595L107.36 269.937C97.2841 270.877 86.2804 284.355 86.7652 295.943C87.2501 307.531 76.2252 329.35 78.9762 341.867C81.0842 351.65 91.9298 367.381 97.2104 379.332L96.7993 381.703L73.2213 429.678C74.8023 427.328 89.0313 490.02 155.117 476.745L202.136 399.122C207.38 395.115 212.18 390.542 216.449 385.484C218.252 383.67 219.75 381.57 220.887 379.268C222.566 376.55 223.847 373.601 224.692 370.511C224.902 369.699 225.124 368.898 225.356 368.076C229.192 358.175 234.315 344.665 238.067 335.309C287.605 333.814 339.62 330.749 365.738 324.522H365.791C368.32 307.114 368.373 287.58 367.308 269.189ZM112.904 313.052C112.496 310.16 112.249 307.247 112.167 304.327C112.746 307.402 113.379 310.468 114.043 313.543C113.663 313.373 113.284 313.202 112.904 313.052Z" fill="black"/>
<path d="M67.8354 426.613C67.8354 426.613 88.9998 490.02 155.117 476.745C155.117 476.745 169.789 406.951 182.079 396.645C190.005 390.023 207.512 378.147 211.253 369.549C214.995 360.952 230.025 320.122 232.934 315.21C235.843 310.297 201.398 253.767 201.398 253.767L128.841 291.703L88.4728 364.327C88.4728 364.327 80.7259 411.319 67.8354 426.613Z" fill="white"/>
<path d="M87.7665 369.987C87.7665 369.987 82.5914 409.193 65.485 429.678" stroke="#263238" stroke-linecap="round" stroke-linejoin="round"/>
<path d="M155.117 476.745C155.117 476.745 169.705 409.215 182.079 396.645C182.079 396.645 210.031 380.176 215.069 360.792C218.557 347.367 224.903 331.892 227.938 324.864" stroke="#263238" stroke-linecap="round" stroke-linejoin="round"/>
<path d="M160.998 327.032C159.944 326.349 177.915 340.916 178.611 360.824" stroke="#263238" stroke-linecap="round" stroke-linejoin="round"/>
<path d="M356.168 314.825C297.903 328.709 110.248 326.883 110.248 326.883C108.667 323.508 106.76 315.007 104.915 305.16C101.226 285.391 97.7795 260.197 97.7795 260.197L91.5715 259.759C91.5715 259.759 90.5175 248.524 89.4635 237.181C88.4095 225.839 94.7335 225.85 94.7335 225.85L94.2802 186.59L94.1643 176.786C122.749 169.225 208.924 177.021 208.924 177.021L211.612 186.483L213.108 193.19L348.737 189.314C361.174 221.898 356.168 314.825 356.168 314.825Z" fill="#92E3A9"/>
<path d="M333.634 219.586L244.677 224.093C241.015 224.278 238.195 227.436 238.378 231.146L239.282 249.462C239.465 253.172 242.582 256.03 246.243 255.844L335.201 251.337C338.862 251.152 341.682 247.994 341.499 244.284L340.595 225.967C340.412 222.257 337.296 219.4 333.634 219.586Z" fill="#263238"/>
<path d="M341.011 263.305L341.296 266.348L238.868 270.364L238.784 267.63L341.011 263.305Z" fill="#263238"/>
<path d="M341.517 273.889L341.612 276.623L239.195 280.457L239.1 277.733L341.517 273.889Z" fill="#263238"/>
<path opacity="0.3" d="M348.716 189.314C348.716 189.314 363.83 261.938 356.168 314.825C356.168 314.825 260.591 326.189 227.864 324.352L226.526 306.676L229.266 306.249C229.266 306.249 216.07 205.366 213.077 193.19C213.077 193.19 326.898 184.764 348.716 189.314Z" fill="black"/>
<path opacity="0.8" d="M223.374 306.42L224.502 319.781C224.502 319.781 128.166 324.053 119.692 320.945C111.218 317.837 120.145 312.881 142.553 311.098C164.961 309.314 223.374 306.42 223.374 306.42Z" fill="white"/>
<path d="M165.857 249.752C170.718 249.752 174.658 246.137 174.658 241.678C174.658 237.219 170.718 233.604 165.857 233.604C160.997 233.604 157.057 237.219 157.057 241.678C157.057 246.137 160.997 249.752 165.857 249.752Z" fill="#263238"/>
<path d="M97.7795 260.186C99.765 282.778 103.938 305.118 110.238 326.883C151.101 326.53 191.954 326.071 232.808 324.747C273.661 323.422 315.641 320.624 356.126 314.825C356.126 314.825 363.377 249.933 348.674 189.314C332.421 185.885 213.488 193.169 213.488 193.169" stroke="#263238" stroke-linecap="round" stroke-linejoin="round"/>
<path d="M223.374 306.42L224.502 319.78L132.804 321.916C129.02 322.248 123.128 322.75 119.65 320.945C118.069 320.122 116.931 318.114 117.679 316.47C118.354 314.996 120.124 314.473 121.705 314.152C132.92 311.813 144.366 310.831 155.781 309.976C180.22 308.139 204.697 306.897 229.213 306.249C228.697 306.249 222.721 256.277 222.057 251.663C219.464 233.614 216.997 215.49 213.793 197.537C212.637 190.586 210.985 183.73 208.85 177.021C171.075 174.287 131.623 171.756 94.08 176.786C94.4278 193.735 93.8059 208.826 94.6597 225.85" stroke="#263238" stroke-linecap="round" stroke-linejoin="round"/>
<path d="M108.835 321.852C108.61 321.161 108.476 320.443 108.435 319.716" stroke="#263238" stroke-linecap="round" stroke-linejoin="round"/>
<path d="M109.047 315.669C110.449 312.112 114.654 308.097 126.09 306.815C146.949 304.465 192.418 300.236 219.095 299.211" stroke="#263238" stroke-linecap="round" stroke-linejoin="round" stroke-dasharray="3.91 3.91"/>
<path d="M221.161 299.136L223.269 299.061L222.984 296.925" stroke="#263238" stroke-linecap="round" stroke-linejoin="round"/>
<path d="M222.394 292.835C217.598 257.879 212.286 223.18 206.204 188.417" stroke="#263238" stroke-linecap="round" stroke-linejoin="round" stroke-dasharray="3.88 3.88"/>
<path d="M205.867 186.377L205.488 184.241L203.38 184.091" stroke="#263238" stroke-linecap="round" stroke-linejoin="round"/>
<path d="M199.122 183.813C181.594 182.628 131.75 179.67 98.4962 181.976" stroke="#263238" stroke-linecap="round" stroke-linejoin="round" stroke-dasharray="4.07 4.07"/>
<path d="M96.3462 182.137L94.2382 182.308" stroke="#263238" stroke-linecap="round" stroke-linejoin="round"/>
<path d="M91.5714 259.759L89.0524 232.525C88.9759 231.707 89.0631 230.882 89.3087 230.099C89.5543 229.316 89.9532 228.591 90.4816 227.968C91.01 227.345 91.657 226.836 92.384 226.472C93.1109 226.108 93.9028 225.897 94.7123 225.85C110.206 224.942 150.279 222.806 165.657 224.056C173.035 224.654 181.056 227.057 184.629 234.212C187.601 240.108 188.044 248.951 183.059 253.799C175.47 261.169 161.072 260.603 151.291 260.955C133.078 261.66 91.582 259.919 91.5714 259.759Z" stroke="#263238" stroke-linecap="round" stroke-linejoin="round"/>
<path d="M186.853 243.109C186.853 242.351 190.69 258.755 176.671 264.17C162.653 269.585 97.7795 267.876 97.7795 267.876V260.186C97.7795 260.186 143.671 261.169 151.312 260.955C158.954 260.741 186.031 263.315 186.853 243.109Z" fill="#263238"/>
<path d="M173.372 334.743C173.372 334.743 184.84 341.546 189.13 354.33" stroke="#263238" stroke-linecap="round" stroke-linejoin="round"/>
<path d="M89.3687 229.94C89.3687 229.94 145.61 227.26 159.923 227.74C174.237 228.221 181.246 231.414 182.669 240.503C184.092 249.592 175.417 255.252 168.503 256.32C161.589 257.388 91.561 257.698 91.561 257.698" stroke="#263238" stroke-linecap="round" stroke-linejoin="round" stroke-dasharray="4 4"/>
<path d="M128.019 340.041C128.019 340.041 119.313 309.4 103.292 303.365C103.292 303.365 100.13 282.454 106.96 281.301C113.79 280.147 133.078 267.267 128.04 251.194C123.002 235.12 107.877 259.257 97.8006 260.186C87.7244 261.115 76.7206 274.604 77.1738 286.203C77.627 297.801 66.6338 319.62 69.3848 332.127C72.1357 344.633 89.0946 366.943 90.4648 378.553" fill="white"/>
<path d="M128.019 340.041C128.019 340.041 119.313 309.4 103.292 303.365C103.292 303.365 100.13 282.454 106.96 281.301C113.79 280.147 133.078 267.267 128.04 251.194C123.002 235.12 107.877 259.257 97.8006 260.186C87.7244 261.115 76.7206 274.604 77.1738 286.203C77.627 297.801 66.6338 319.62 69.3848 332.127C72.1357 344.633 89.0946 366.943 90.4648 378.553" stroke="#263238" stroke-linecap="round" stroke-linejoin="round"/>
<path d="M106.928 255.476C106.928 255.476 118.997 257.698 125.552 249.933C132.108 242.169 124.562 241.678 124.562 241.678L106.928 255.476Z" fill="white" stroke="#263238" stroke-linecap="round" stroke-linejoin="round"/>
<path d="M85.374 272.778C87.577 272.931 89.7073 273.64 91.5715 274.839" stroke="#263238" stroke-linecap="round" stroke-linejoin="round"/>
<path d="M85.005 277.221C87.1994 277.432 89.2899 278.268 91.0339 279.634" stroke="#263238" stroke-linecap="round" stroke-linejoin="round"/>
<path d="M117.584 318.264C117.584 318.264 169.23 315.562 182.827 316.352" stroke="#263238" stroke-linecap="round" stroke-linejoin="round"/>
<path d="M170.253 312.358C170.253 312.358 183.248 311.29 191.333 312.358" stroke="#263238" stroke-linecap="round" stroke-linejoin="round"/>
<path d="M203.18 316.203H224.207" stroke="#263238" stroke-linecap="round" stroke-linejoin="round"/>
<path d="M215.901 199.171C215.901 199.171 308.263 190.809 345.375 195.583C345.375 195.583 355.388 214.241 353.206 309.859C311.495 315.276 269.528 318.439 227.485 319.332" stroke="#263238" stroke-linecap="round" stroke-linejoin="round" stroke-dasharray="4 4"/>
<g opacity="0.1">
<path d="M465.931 331.497C463.307 320.186 459.46 315.936 455.602 312.668C455.602 312.668 455.518 306.26 450.574 302.607C449.254 301.429 447.845 300.357 446.358 299.403C441.721 295.879 436.609 291.927 436.609 291.927C434.206 284.878 430.949 276.345 427.429 267.95L427.608 269.862C424.003 260.944 420.472 252.069 419.481 249.122V249.058C420.535 251.898 421.589 254.643 422.749 257.174L409.553 209.915C409.237 208.014 408.91 206.145 408.583 204.34C407.951 199 406.233 188.94 402.09 188.224C401.936 188.214 401.781 188.214 401.627 188.224C401.627 188.224 396.747 186.088 396.747 194.857C390.939 196.822 388.694 201.265 388.136 206.487C387.833 208.144 387.798 209.839 388.03 211.507C388.136 213.44 388.357 215.416 388.652 217.381L369.954 192.475L368.152 190.104L345.09 159.346L314.092 117.907C312.939 116.369 311.497 115.076 309.851 114.102C308.204 113.129 306.384 112.493 304.495 112.232C302.606 111.971 300.685 112.09 298.841 112.582C296.997 113.074 295.267 113.929 293.75 115.098L255.268 144.714L240.249 156.27C228.729 162.347 231.732 174.351 234.926 178.612L302.034 268.121C301.685 268.077 301.332 268.059 300.98 268.068C300.98 268.068 299.062 263.486 294.319 264.212C293.309 264.26 292.332 264.589 291.494 265.163C290.729 265.571 290.08 266.17 289.608 266.904C289.082 267.547 288.61 268.233 288.195 268.954C285.782 273.141 288.016 283.383 291.505 295.889C291.726 296.701 291.947 297.481 292.158 298.207V298.324L293.054 301.454C296.469 313.458 302.856 337.029 304.037 348.585C304.121 349.653 304.174 350.795 304.195 351.863C304.269 365.171 298.44 387.449 300.949 396.655C301.275 397.862 301.613 399.015 301.95 400.158C303.816 406.31 305.481 412.13 308.411 417.908C311.973 424.957 316.221 431.718 320.195 438.542C327.488 451.08 335.035 463.469 342.835 475.709C346.429 481.326 350.634 486.453 354.703 491.729C356.568 494.153 360.637 497.795 361.343 500.903C361.343 500.903 397.421 503.925 417.616 490.928L415.719 461.835L429.263 382.963C433.131 377.015 445.073 365.395 447.455 361.721C448.688 359.895 449.889 358.079 451.059 356.306C459.966 347.88 464.424 341.354 466.384 333.761C466.427 333.782 466.29 332.917 465.931 331.497ZM341.032 348.723L340.853 348.382C344.538 350.072 348.442 351.223 352.447 351.799C348.242 351.308 343.488 350.624 341.032 348.723ZM356.252 352.258L358.191 352.397C357.543 352.395 356.895 352.349 356.252 352.258ZM340.653 347.922L338.229 343.052C334.856 333.248 327.235 310.136 327.204 310.04C325.712 303.381 323.717 296.847 321.238 290.496C323.031 291.137 324.953 291.316 326.832 291.017C328.71 290.719 330.486 289.953 331.999 288.787L350.444 274.593C352.352 275.758 354.302 276.804 356.21 277.723L373.485 291.404L359.783 348.467L340.653 347.922ZM410.575 216.494C412.009 223.308 414.275 233.112 417.279 242.607C414.363 234.096 412.114 225.364 410.554 216.494H410.575Z" fill="black"/>
<path d="M332.274 490.693L332.379 491.205C332.379 491.205 332.347 491.013 332.274 490.693Z" fill="black"/>
</g>
<path d="M396.304 218.588C397.358 217.883 412.81 209.36 420.546 234.917C428.282 260.475 437.357 303.963 437.357 303.963L418.976 307.584C418.976 307.584 401.943 298.399 386.681 275.394C386.681 275.394 365.285 269.777 355.967 256.427C347.535 244.294 373.548 199.748 373.548 199.748L396.304 218.588Z" fill="white"/>
<path d="M389.696 250.393C394.249 257.313 402.871 271.87 414.507 276.462" stroke="#263238" stroke-linecap="round" stroke-linejoin="round"/>
<path d="M376.816 257.837C378.924 258.702 384.194 261.777 386.681 261.895C386.681 261.895 397.421 283.437 415.139 290.432" stroke="#263238" stroke-linecap="round" stroke-linejoin="round"/>
<path d="M366.961 265.772C373.548 271.357 381.4 275.17 386.681 275.384C386.681 275.384 397.421 296.925 415.139 303.921" stroke="#263238" stroke-linecap="round" stroke-linejoin="round"/>
<path d="M311.522 109.674L253.24 154.533C248.178 158.429 247.191 165.745 251.036 170.874L331.985 278.858C335.83 283.988 343.05 284.987 348.112 281.091L406.394 236.232C411.456 232.336 412.443 225.02 408.598 219.891L327.649 111.907C323.804 106.778 316.584 105.778 311.522 109.674Z" fill="#263238"/>
<path d="M404.736 233.892L351.256 275.063C349.739 276.235 348.009 277.092 346.164 277.584C344.319 278.077 342.397 278.195 340.507 277.933C338.617 277.671 336.797 277.034 335.151 276.058C333.505 275.081 332.065 273.785 330.914 272.244L253.603 169.118C252.343 167.452 251.459 165.527 251.01 163.479C250.387 160.728 250.562 157.853 251.514 155.2C252.465 152.547 254.154 150.23 256.375 148.527L271.405 136.971L309.876 107.345C311.394 106.176 313.125 105.321 314.969 104.831C316.813 104.34 318.735 104.222 320.624 104.484C322.513 104.745 324.332 105.382 325.979 106.357C327.625 107.331 329.066 108.625 330.218 110.164L361.237 151.538L384.299 182.297L407.487 213.269C408.644 214.806 409.49 216.558 409.978 218.427C410.466 220.295 410.586 222.243 410.33 224.158C410.075 226.074 409.449 227.919 408.489 229.589C407.529 231.26 406.254 232.722 404.736 233.892Z" fill="#92E3A9"/>
<path opacity="0.1" d="M361.195 151.538L271.373 136.96L309.876 107.345C311.394 106.176 313.125 105.321 314.969 104.831C316.813 104.34 318.735 104.222 320.624 104.484C322.513 104.745 324.332 105.382 325.979 106.357C327.625 107.331 329.066 108.625 330.218 110.164L361.195 151.538Z" fill="black"/>
<path opacity="0.1" d="M404.736 233.892L351.256 275.063C349.739 276.235 348.009 277.092 346.164 277.584C344.319 278.077 342.397 278.195 340.507 277.933C338.617 277.671 336.797 277.034 335.151 276.058C333.505 275.081 332.065 273.785 330.914 272.244L253.603 169.118C252.343 167.452 251.458 165.527 251.01 163.479L386.07 184.764L407.487 213.333C409.804 216.432 410.815 220.335 410.299 224.188C409.784 228.04 407.783 231.53 404.736 233.892Z" fill="black"/>
<path d="M317.466 117.815L308.024 125.083C306.133 126.539 305.764 129.272 307.201 131.189L318.632 146.438C320.069 148.354 322.766 148.727 324.658 147.272L334.1 140.004C335.991 138.548 336.36 135.815 334.923 133.899L323.492 118.65C322.056 116.733 319.358 116.36 317.466 117.815Z" fill="white" stroke="#263238" stroke-linecap="round" stroke-linejoin="round"/>
<path d="M312.943 121.282L329.248 143.731" stroke="#263238" stroke-linecap="round" stroke-linejoin="round"/>
<path d="M312.943 138.851L329.248 126.323" stroke="#263238" stroke-linecap="round" stroke-linejoin="round"/>
<path d="M344.521 268.346L341.738 270.418L307.789 225.134L310.551 223.02L344.521 268.346Z" fill="#263238"/>
<path d="M349.232 264.811L346.45 266.904L312.458 221.546L315.199 219.431L349.232 264.811Z" fill="#263238"/>
<path d="M353.933 261.297L351.161 263.369L317.117 217.968L319.868 215.843L353.933 261.297Z" fill="#263238"/>
<path d="M358.645 257.762L355.862 259.834L322.271 215.031L325.011 212.906L358.645 257.762Z" fill="#263238"/>
<path d="M363.725 253.96L360.942 256.042L327.299 211.165L330.05 209.04L363.725 253.96Z" fill="#263238"/>
<path d="M363.725 201.158L360.942 203.23L327.299 158.352L330.05 156.238L363.725 201.158Z" fill="#263238"/>
<path d="M290.454 122.412L286.148 125.726L380.95 252.191L385.256 248.877L290.454 122.412Z" fill="#263238"/>
<path d="M404.736 233.892L351.256 275.063C349.739 276.235 348.009 277.092 346.164 277.584C344.319 278.077 342.397 278.195 340.507 277.933C338.617 277.671 336.797 277.034 335.151 276.058C333.505 275.081 332.065 273.785 330.914 272.244L253.603 169.118C252.343 167.452 251.459 165.527 251.01 163.479C250.387 160.728 250.562 157.853 251.514 155.2C252.465 152.547 254.154 150.23 256.375 148.527L271.405 136.971L309.876 107.345C311.394 106.176 313.125 105.321 314.969 104.831C316.813 104.34 318.735 104.222 320.624 104.484C322.513 104.745 324.332 105.382 325.979 106.357C327.625 107.331 329.066 108.625 330.218 110.164L361.237 151.538L384.299 182.297L407.487 213.269C408.644 214.806 409.49 216.558 409.978 218.427C410.466 220.295 410.586 222.243 410.33 224.158C410.075 226.074 409.449 227.919 408.489 229.589C407.529 231.26 406.254 232.722 404.736 233.892Z" stroke="#263238" stroke-linecap="round" stroke-linejoin="round"/>
<path d="M361.385 500.892C361.385 500.892 423.634 523.32 442.469 474.47C442.469 474.47 413.01 438.158 429.094 408.489C439.212 389.799 467.196 348.542 467.196 348.542C467.196 348.542 478.885 337.296 482.521 325.996C482.521 325.996 480.519 313.405 471.707 304.882C471.707 304.882 471.612 298.474 466.669 294.821C461.726 291.169 452.661 284.141 452.661 284.141C452.661 284.141 437.758 247.915 435.544 241.368C433.331 234.821 428.883 222.443 426.659 208.773C424.435 195.102 422.38 180.385 417.658 180.428C417.658 180.428 412.789 178.292 412.789 187.06C412.789 187.06 402.565 192.4 404.072 203.7C405.579 214.999 406.97 220.841 406.57 227.196C406.169 233.55 408.183 255.615 413.221 262.536C413.221 262.536 414.907 293.508 417.437 301.571C417.521 301.817 417.595 302.041 417.669 302.244C420.325 309.069 393.785 335.352 379.419 342.465C379.419 342.465 377.912 345.306 372.336 344.526C366.76 343.747 357.327 343.383 355.704 339.186C354.081 334.989 343.277 302.244 343.277 302.244C343.277 302.244 334.54 260.272 317.085 260.282C317.085 260.282 314.44 253.874 307.599 257.377C300.759 260.88 305.238 279.976 308.263 290.421C311.288 300.866 318.951 328.325 320.195 340.959C321.438 353.593 314.377 378.905 317.033 388.859C319.689 398.813 322.64 405.53 331.114 421.828C339.588 438.126 358.36 486.72 361.385 500.892Z" fill="white"/>
<path d="M361.385 500.892C361.385 500.892 348.062 450.077 328.479 417.214C308.896 384.352 320.416 372.732 320.416 345.381C320.416 318.029 298.419 271.464 304.353 261.201C310.287 250.937 318.382 259.15 321.765 268.73C325.148 278.31 320.416 283.789 310.93 284.472" stroke="#263238" stroke-linecap="round" stroke-linejoin="round"/>
<path d="M317.085 260.325C317.085 260.325 328.458 259.62 335.446 278.043C342.434 296.466 353.628 343.191 365.285 357.406" stroke="#263238" stroke-linecap="round" stroke-linejoin="round"/>
<path d="M356.083 340.147C356.147 340.297 372.368 349.46 397.537 341.429" stroke="#263238" stroke-linecap="round" stroke-linejoin="round"/>
<path d="M319.246 314.398C320.511 312.83 322.16 311.627 324.028 310.909C325.897 310.191 327.919 309.983 329.891 310.307" stroke="#263238" stroke-linecap="round" stroke-linejoin="round"/>
<path d="M321.407 320.197C322.5 318.873 323.938 317.887 325.558 317.353C327.178 316.818 328.913 316.757 330.566 317.175" stroke="#263238" stroke-linecap="round" stroke-linejoin="round"/>
<path d="M412.789 187.028C396.241 192.614 408.573 217.936 406.57 227.174C404.567 236.413 409.732 254.099 413.706 263.689C413.706 274.935 417.658 302.223 417.658 302.223C415.213 310.906 394.807 336.495 374.982 344.505" stroke="#263238" stroke-linecap="round" stroke-linejoin="round"/>
<path d="M424.931 199.78C424.931 199.78 423.697 180.396 417.658 180.396C411.619 180.396 411.987 193.458 414.496 203.155C417.004 212.852 426.765 211.464 424.931 199.78Z" stroke="#263238" stroke-linecap="round" stroke-linejoin="round"/>
<path d="M424.931 199.78C424.931 199.78 430.074 230.25 438.791 249.389" stroke="#263238" stroke-linecap="round" stroke-linejoin="round"/>
<path d="M449.067 320.752C453.283 313.832 455.149 307.285 456.709 298.955C456.319 293.732 450.385 276.687 443.492 260.176" stroke="#263238" stroke-linecap="round" stroke-linejoin="round"/>
<path d="M453.22 285.754C460.06 290.966 471.96 294.971 470.59 303.963C469.078 312.959 465.971 321.604 461.42 329.478" stroke="#263238" stroke-linecap="round" stroke-linejoin="round"/>
<path d="M443.987 476.745C443.987 476.745 420.156 443.22 424.931 420.066C428.44 403.031 451.007 373.245 467.196 348.574C476.113 340.147 480.571 333.622 482.521 326.028C479.665 311.771 475.027 307.616 470.569 303.964" stroke="#263238" stroke-linecap="round" stroke-linejoin="round"/>
<path d="M450.342 291.286C447.688 290.53 444.909 290.334 442.176 290.711C439.444 291.088 436.817 292.029 434.459 293.476" stroke="#263238" stroke-linecap="round" stroke-linejoin="round"/>
<path d="M449.004 297.021C445.767 296.525 442.458 297.113 439.581 298.698" stroke="#263238" stroke-linecap="round" stroke-linejoin="round"/>
</svg>
